<svg viewBox="0 0 1217 364" fill="none" xmlns="http://www.w3.org/2000/svg">
  <path d="M55.2497 105.416V163H0V0.696572H142.17C193.181 0.696572 218.687 14.7056 218.687 42.7236V45.2778C218.687 62.4601 207.822 74.3794 186.092 81.0356C195.955 83.6671 203.969 88.0788 210.134 94.2707C216.298 100.462 219.38 108.512 219.38 118.419V142.103L219.612 163H163.9C163.9 162.845 163.977 159.44 164.131 152.783V133.976C164.131 123.914 161.357 116.639 155.809 112.15C150.261 107.66 140.783 105.416 127.375 105.416H55.2497ZM55.2497 37.6154V69.4259H138.933C146.485 69.4259 152.033 67.9554 155.578 65.0142C159.276 62.0731 161.126 58.2032 161.126 53.4046V53.1724C161.126 48.5285 159.276 44.8134 155.578 42.0271C152.033 39.0859 146.485 37.6154 138.933 37.6154H55.2497Z" fill="#F0F0F0"/>
  <path d="M244.624 0.232191H767.407V37.151H298.594V61.2991H764.402V98.4501H298.594V125.152H769.719V163H244.624V0.232191Z" fill="#F0F0F0"/>
  <path d="M794.196 0H911.399C927.889 0 942.761 1.00617 956.015 3.01852C969.269 5.03086 980.365 7.97198 989.304 11.8419C998.242 15.8666 1005.79 20.2009 1011.96 24.8447C1018.43 29.6434 1023.29 34.9839 1026.52 40.8661C1029.91 46.9031 1032.38 52.7854 1033.92 58.5128C1035.31 64.3951 1036 70.5869 1036 77.0883V83.5897C1036 91.4843 1035.08 98.7597 1033.23 105.416C1031.22 112.227 1027.45 119.27 1021.9 126.546C1016.35 133.821 1009.11 140.013 1000.17 145.121C991.384 150.229 979.363 154.486 964.106 157.892C948.849 161.142 931.357 162.768 911.63 162.768H794.196V0ZM849.446 38.5442V123.759H907.007C954.32 123.759 977.976 109.75 977.976 81.7322V80.339C977.976 52.4758 954.32 38.5442 907.007 38.5442H849.446Z" fill="#F0F0F0"/>
  <path d="M245 360.988V199.012H323.332L384.334 299.812L445.336 199.012H521.126V360.988H466.594V248.833L397.043 360.988H367.466L298.146 248.833V360.988H245Z" fill="#F0F0F0"/>
  <path d="M548.954 198.317H735.194V235.161H603.486V259.261H731.959V296.337H603.486V322.985H737.505V360.756H548.954V198.317Z" fill="#F0F0F0"/>
  <path d="M859.018 364C841.457 363.846 826.129 362.455 813.035 359.829C799.942 357.048 789.852 353.727 782.766 349.865C775.679 345.848 769.98 341.059 765.667 335.498C761.507 329.937 758.889 324.839 757.81 320.204C756.578 315.724 755.962 310.935 755.962 305.837V303.52H813.498C814.422 315.415 821.431 323.139 834.525 326.692C841.457 328.392 850.237 329.241 860.867 329.241H873.575C881.894 329.241 889.596 328.778 896.682 327.851C903.922 326.924 909.237 325.611 912.626 323.912C915.861 322.058 918.017 320.204 919.096 318.35C920.174 316.497 920.79 314.411 920.944 312.094C920.944 308.541 919.943 305.76 917.94 303.752C915.938 301.743 911.547 299.967 904.769 298.422C897.683 296.877 887.67 295.95 874.731 295.641L857.4 295.41L844.23 294.946C786.925 293.556 758.272 277.721 758.272 247.443V245.589C758.426 240.337 759.12 235.47 760.352 230.99C761.892 226.665 764.742 222.262 768.901 217.782C773.215 213.302 778.837 209.594 785.769 206.659C792.701 203.57 801.944 201.021 813.498 199.012C825.205 197.004 838.838 196 854.397 196H870.571C886.746 196 900.995 197.081 913.319 199.244C925.643 201.252 935.424 203.879 942.665 207.123C950.059 210.212 956.066 214.074 960.688 218.709C965.463 223.498 968.698 228.132 970.393 232.612C972.087 237.247 972.934 242.113 972.934 247.211V249.528H915.63C915.322 247.674 914.859 246.207 914.243 245.126C913.781 243.89 912.472 242.268 910.315 240.259C908.312 238.097 905.694 236.397 902.459 235.161C898.916 233.771 893.986 232.612 887.67 231.686C880.892 230.604 874.114 230.063 867.336 230.063H859.018C847.002 230.063 837.452 230.836 830.366 232.381C823.279 233.926 818.966 235.548 817.426 237.247C815.885 238.792 815.115 241.032 815.115 243.967C815.269 246.748 816.116 248.988 817.657 250.687C819.351 252.541 823.279 254.24 829.441 255.785C835.757 257.175 844.615 257.87 856.014 257.87L868.954 258.102L885.591 258.334C918.402 258.952 942.125 263.123 956.76 270.847C971.394 278.417 978.711 290.312 978.711 306.532V309.545C978.711 315.57 978.018 320.977 976.632 325.766C975.091 330.4 972.087 335.189 967.62 340.132C963.307 345.076 957.453 349.247 950.059 352.646C942.819 355.89 932.806 358.593 920.02 360.756C907.234 362.919 892.369 364 875.424 364H859.018Z" fill="#F0F0F0"/>
  <path d="M1097.31 364C1079.75 363.846 1064.42 362.455 1051.32 359.829C1038.23 357.048 1028.14 353.727 1021.05 349.865C1013.97 345.848 1008.27 341.059 1003.96 335.498C999.796 329.937 997.177 324.839 996.099 320.204C994.867 315.724 994.25 310.935 994.25 305.837V303.52H1051.79C1052.71 315.415 1059.72 323.139 1072.81 326.692C1079.75 328.392 1088.53 329.241 1099.16 329.241H1111.86C1120.18 329.241 1127.88 328.778 1134.97 327.851C1142.21 326.924 1147.53 325.611 1150.91 323.912C1154.15 322.058 1156.31 320.204 1157.38 318.35C1158.46 316.497 1159.08 314.411 1159.23 312.094C1159.23 308.541 1158.23 305.76 1156.23 303.752C1154.23 301.743 1149.84 299.967 1143.06 298.422C1135.97 296.877 1125.96 295.95 1113.02 295.641L1095.69 295.41L1082.52 294.946C1025.21 293.556 996.561 277.721 996.561 247.443V245.589C996.715 240.337 997.408 235.47 998.641 230.99C1000.18 226.665 1003.03 222.262 1007.19 217.782C1011.5 213.302 1017.13 209.594 1024.06 206.659C1030.99 203.57 1040.23 201.021 1051.79 199.012C1063.49 197.004 1077.13 196 1092.69 196H1108.86C1125.03 196 1139.28 197.081 1151.61 199.244C1163.93 201.252 1173.71 203.879 1180.95 207.123C1188.35 210.212 1194.36 214.074 1198.98 218.709C1203.75 223.498 1206.99 228.132 1208.68 232.612C1210.38 237.247 1211.22 242.113 1211.22 247.211V249.528H1153.92C1153.61 247.674 1153.15 246.207 1152.53 245.126C1152.07 243.89 1150.76 242.268 1148.6 240.259C1146.6 238.097 1143.98 236.397 1140.75 235.161C1137.2 233.771 1132.28 232.612 1125.96 231.686C1119.18 230.604 1112.4 230.063 1105.63 230.063H1097.31C1085.29 230.063 1075.74 230.836 1068.65 232.381C1061.57 233.926 1057.26 235.548 1055.71 237.247C1054.17 238.792 1053.4 241.032 1053.4 243.967C1053.56 246.748 1054.41 248.988 1055.95 250.687C1057.64 252.541 1061.57 254.24 1067.73 255.785C1074.05 257.175 1082.9 257.87 1094.3 257.87L1107.24 258.102L1123.88 258.334C1156.69 258.952 1180.41 263.123 1195.05 270.847C1209.68 278.417 1217 290.312 1217 306.532V309.545C1217 315.57 1216.31 320.977 1214.92 325.766C1213.38 330.4 1210.38 335.189 1205.91 340.132C1201.6 345.076 1195.74 349.247 1188.35 352.646C1181.11 355.89 1171.09 358.593 1158.31 360.756C1145.52 362.919 1130.66 364 1113.71 364H1097.31Z" fill="#F0F0F0"/>
</svg>
