<svg viewBox="0 0 410 31" fill="none" xmlns="http://www.w3.org/2000/svg">
  <path d="M24.7393 20.2139H10.7533V29.9999H0.715332V0.641945H24.7393C34.7073 0.641945 39.6913 3.81995 39.6913 10.1759V10.5959C39.6913 17.0079 34.7073 20.2139 24.7393 20.2139ZM10.7533 7.31995V13.6199H24.5713C27.6793 13.6199 29.2333 12.5979 29.2333 10.5539V10.4279C29.2333 8.35595 27.6793 7.31995 24.5713 7.31995H10.7533Z" fill="#BE434E"/>
  <path d="M118.012 29.9999H62.0685C59.7165 29.9999 57.5605 29.8179 55.6005 29.4539C53.6685 29.0619 52.0305 28.5579 50.6865 27.9419C49.3705 27.3259 48.1945 26.5699 47.1585 25.6739C46.1505 24.7779 45.3525 23.8819 44.7645 22.9859C44.1485 22.0619 43.6585 21.0819 43.2945 20.0459C42.9025 19.0099 42.6505 18.0579 42.5385 17.1899C42.3985 16.3219 42.3285 15.4679 42.3285 14.6279V0.557946H52.2825V14.0819C52.2825 15.1179 52.4225 16.0839 52.7025 16.9799C53.0385 17.9039 53.5425 18.7999 54.2145 19.6679C54.9425 20.5359 56.0345 21.2219 57.4905 21.7259C58.9745 22.2299 60.5285 22.4819 62.1525 22.4819C98.7205 22.4819 117.228 22.4679 117.676 22.4399C119.636 22.3559 121.19 22.1179 122.338 21.7259C123.766 21.2219 124.844 20.5359 125.572 19.6679C126.3 18.7719 126.804 17.8759 127.084 16.9799C127.392 16.0839 127.546 15.1179 127.546 14.0819V0.557946H137.458V14.6279C137.458 15.8599 137.304 17.0919 136.996 18.3239C136.688 19.6119 136.1 20.9559 135.232 22.3559C134.364 23.8119 133.244 25.0859 131.872 26.1779C130.528 27.2699 128.652 28.1799 126.244 28.9079C123.836 29.6359 121.092 29.9999 118.012 29.9999Z" fill="#BE434E"/>
  <path d="M141.727 29.9579V0.515947H169.237C173.493 0.515947 176.503 1.14595 178.267 2.40595C180.059 3.66595 180.955 5.27595 180.955 7.23595V7.78195C180.955 8.70595 180.773 9.51795 180.409 10.2179C180.045 10.9739 179.569 11.5619 178.981 11.9819C178.365 12.4019 177.819 12.7379 177.343 12.9899C176.839 13.2139 176.349 13.3959 175.873 13.5359C176.573 13.7039 177.245 13.9279 177.889 14.2079C178.589 14.5159 179.331 14.9359 180.115 15.4679C180.899 15.9999 181.529 16.7419 182.005 17.6939C182.509 18.6459 182.761 19.7239 182.761 20.9279V21.5159C182.761 27.1439 178.337 29.9579 169.489 29.9579H141.727ZM151.765 6.73195V11.5199H167.515C169.839 11.5199 171.001 10.7359 171.001 9.16795V9.08395C171.001 7.51595 169.839 6.73195 167.515 6.73195H151.765ZM168.355 17.7779H151.765V23.5739H168.355C169.867 23.5739 170.903 23.2799 171.463 22.6919C172.051 22.1039 172.345 21.4319 172.345 20.6759V20.5079C172.345 18.6879 171.015 17.7779 168.355 17.7779Z" fill="#BE434E"/>
  <path d="M186.639 0.641945H196.677V22.6919H218.937V29.9999H186.639V0.641945Z" fill="#BE434E"/>
  <path d="M231.949 0.641945V29.9579H221.953V0.641945H231.949Z" fill="#BE434E"/>
  <path d="M254.646 30.5459C251.454 30.5179 248.668 30.2659 246.288 29.7899C243.908 29.2859 242.074 28.6839 240.786 27.9839C239.498 27.2559 238.462 26.3879 237.678 25.3799C236.922 24.3719 236.446 23.4479 236.25 22.6079C236.026 21.7959 235.914 20.9279 235.914 20.0039V19.5839H246.372C246.54 21.7399 247.814 23.1399 250.194 23.7839C251.454 24.0919 253.05 24.2459 254.982 24.2459H257.292C258.804 24.2459 260.204 24.1619 261.492 23.9939C262.808 23.8259 263.774 23.5879 264.39 23.2799C264.978 22.9439 265.37 22.6079 265.566 22.2719C265.762 21.9359 265.874 21.5579 265.902 21.1379C265.902 20.4939 265.72 19.9899 265.356 19.6259C264.992 19.2619 264.194 18.9399 262.962 18.6599C261.674 18.3799 259.854 18.2119 257.502 18.1559L254.352 18.1139L251.958 18.0299C241.542 17.7779 236.334 14.9079 236.334 9.41995V9.08395C236.362 8.13195 236.488 7.24995 236.712 6.43795C236.992 5.65395 237.51 4.85595 238.266 4.04395C239.05 3.23195 240.072 2.55995 241.332 2.02795C242.592 1.46795 244.272 1.00595 246.372 0.641945C248.5 0.277947 250.978 0.0959473 253.806 0.0959473H256.746C259.686 0.0959473 262.276 0.291947 264.516 0.683947C266.756 1.04795 268.534 1.52395 269.85 2.11195C271.194 2.67195 272.286 3.37195 273.126 4.21195C273.994 5.07995 274.582 5.91995 274.89 6.73195C275.198 7.57195 275.352 8.45395 275.352 9.37795V9.79795H264.936C264.88 9.46195 264.796 9.19595 264.684 8.99995C264.6 8.77595 264.362 8.48195 263.97 8.11795C263.606 7.72595 263.13 7.41795 262.542 7.19395C261.898 6.94195 261.002 6.73195 259.854 6.56395C258.622 6.36795 257.39 6.26995 256.158 6.26995H254.646C252.462 6.26995 250.726 6.40995 249.438 6.68995C248.15 6.96995 247.366 7.26395 247.086 7.57195C246.806 7.85195 246.666 8.25795 246.666 8.78995C246.694 9.29395 246.848 9.69995 247.128 10.0079C247.436 10.3439 248.15 10.6519 249.27 10.9319C250.418 11.1839 252.028 11.3099 254.1 11.3099L256.452 11.3519L259.476 11.3939C265.44 11.5059 269.752 12.2619 272.412 13.6619C275.072 15.0339 276.402 17.1899 276.402 20.1299V20.6759C276.402 21.7679 276.276 22.7479 276.024 23.6159C275.744 24.4559 275.198 25.3239 274.386 26.2199C273.602 27.1159 272.538 27.8719 271.194 28.4879C269.878 29.0759 268.058 29.5659 265.734 29.9579C263.41 30.3499 260.708 30.5459 257.628 30.5459H254.646Z" fill="#BE434E"/>
  <path d="M280.277 29.9579V0.641945H290.273V11.3519H311.777V0.641945H321.773V29.9579H311.777V18.4079H290.273V29.9579H280.277Z" fill="#BE434E"/>
  <path d="M326.831 0.515947H360.683V7.19395H336.743V11.5619H360.095V18.2819H336.743V23.1119H361.103V29.9579H326.831V0.515947Z" fill="#BE434E"/>
  <path d="M365.549 0.515947H386.843C389.839 0.515947 392.541 0.697947 394.949 1.06195C397.357 1.42595 399.373 1.95795 400.997 2.65795C402.621 3.38595 403.993 4.16995 405.113 5.00995C406.289 5.87795 407.171 6.84395 407.759 7.90795C408.375 8.99995 408.823 10.0639 409.103 11.0999C409.355 12.1639 409.481 13.2839 409.481 14.4599V15.6359C409.481 17.0639 409.313 18.3799 408.977 19.5839C408.613 20.8159 407.927 22.0899 406.919 23.4059C405.911 24.7219 404.595 25.8419 402.971 26.7659C401.375 27.6899 399.191 28.4599 396.419 29.0759C393.647 29.6639 390.469 29.9579 386.885 29.9579H365.549V0.515947ZM375.587 7.48795V22.9019H386.045C394.641 22.9019 398.939 20.3679 398.939 15.2999V15.0479C398.939 10.0079 394.641 7.48795 386.045 7.48795H375.587Z" fill="#BE434E"/>
</svg>
