<svg viewBox="0 0 344 31" fill="none" xmlns="http://www.w3.org/2000/svg">
  <path d="M10.3568 19.584V30H0.318829V0.641962H26.1488C35.4168 0.641962 40.0508 3.17596 40.0508 8.24396V8.70596C40.0508 11.814 38.0768 13.97 34.1288 15.174C35.9208 15.65 37.3768 16.448 38.4968 17.568C39.6168 18.688 40.1768 20.144 40.1768 21.936V26.22L40.2188 30H30.0968C30.0968 29.972 30.1108 29.356 30.1388 28.152V24.75C30.1388 22.93 29.6348 21.614 28.6268 20.802C27.6188 19.99 25.8968 19.584 23.4608 19.584H10.3568ZM10.3568 7.31996V13.074H25.5608C26.9328 13.074 27.9408 12.808 28.5848 12.276C29.2568 11.744 29.5928 11.044 29.5928 10.176V10.134C29.5928 9.29396 29.2568 8.62196 28.5848 8.11796C27.9408 7.58596 26.9328 7.31996 25.5608 7.31996H10.3568Z" fill="#BE434E"/>
  <path d="M44.6567 0.515964H78.5087V7.19396H54.5687V11.562H77.9207V18.282H54.5687V23.112H78.9287V29.958H44.6567V0.515964Z" fill="#BE434E"/>
  <path d="M103.619 30.504C101.043 30.504 98.6915 30.308 96.5635 29.916C94.4355 29.552 92.6435 29.076 91.1875 28.488C89.7315 27.9 88.4435 27.172 87.3235 26.304C86.2035 25.436 85.3355 24.568 84.7195 23.7C84.0755 22.832 83.5435 21.908 83.1235 20.928C82.7035 19.892 82.4375 18.968 82.3255 18.156C82.1855 17.344 82.1155 16.532 82.1155 15.72V14.586C82.1155 13.298 82.2415 12.094 82.4935 10.974C82.7455 9.82596 83.3195 8.55196 84.2155 7.15196C85.1395 5.75196 86.3295 4.56196 87.7855 3.58196C89.2695 2.57396 91.3695 1.73396 94.0855 1.06196C96.8015 0.361963 99.9795 0.0119629 103.619 0.0119629H105.383C108.911 0.0119629 112.033 0.305963 114.749 0.893964C117.465 1.48196 119.565 2.20996 121.049 3.07796C122.505 3.91796 123.709 4.91196 124.661 6.05996C125.585 7.17996 126.187 8.17396 126.467 9.04196C126.747 9.93796 126.887 10.792 126.887 11.604V12.024H116.219C116.135 11.716 116.023 11.436 115.883 11.184C115.715 10.904 115.393 10.498 114.917 9.96596C114.357 9.40596 113.699 8.94396 112.943 8.57996C112.159 8.21596 111.039 7.87996 109.583 7.57196C108.099 7.26396 106.391 7.10996 104.459 7.10996C102.163 7.10996 100.203 7.33396 98.5795 7.78196C96.9555 8.22996 95.7375 8.83196 94.9255 9.58796C94.1135 10.372 93.5255 11.17 93.1615 11.982C92.8255 12.85 92.6575 13.774 92.6575 14.754V15.258C92.6575 16.21 92.8535 17.12 93.2455 17.988C93.6375 18.884 94.2395 19.752 95.0515 20.592C95.8915 21.404 97.1375 22.062 98.7895 22.566C100.441 23.07 102.359 23.322 104.543 23.322C111.151 23.322 115.043 21.614 116.219 18.198C116.247 18.142 116.261 18.114 116.261 18.114H126.929V18.534C126.901 19.43 126.747 20.326 126.467 21.222C126.159 22.146 125.529 23.182 124.577 24.33C123.625 25.478 122.407 26.486 120.923 27.354C119.439 28.222 117.339 28.964 114.623 29.58C111.935 30.196 108.855 30.504 105.383 30.504H103.619Z" fill="#BE434E"/>
  <path d="M151.245 0.557963H186.819C189.508 0.557963 191.958 0.725964 194.17 1.06196C196.354 1.42596 198.188 1.88796 199.672 2.44796C201.156 3.00796 202.458 3.69396 203.578 4.50596C204.698 5.31796 205.565 6.12996 206.181 6.94196C206.797 7.78196 207.302 8.67796 207.694 9.62996C208.086 10.582 208.338 11.45 208.45 12.234C208.562 13.018 208.618 13.816 208.618 14.628V15.762C208.618 16.574 208.562 17.372 208.45 18.156C208.338 18.94 208.086 19.808 207.694 20.76C207.302 21.768 206.797 22.678 206.181 23.49C205.565 24.33 204.698 25.156 203.578 25.968C202.43 26.808 201.141 27.508 199.713 28.068C198.229 28.656 196.382 29.132 194.17 29.496C191.958 29.832 189.508 30 186.819 30H151.245C148.557 30 146.093 29.832 143.853 29.496C141.641 29.132 139.794 28.656 138.31 28.068C136.826 27.48 135.538 26.78 134.446 25.968C133.298 25.128 132.415 24.302 131.799 23.49C131.183 22.65 130.68 21.74 130.288 20.76C129.924 19.78 129.685 18.912 129.573 18.156C129.461 17.372 129.405 16.574 129.405 15.762V14.628C129.405 13.788 129.461 12.99 129.573 12.234C129.685 11.478 129.924 10.61 130.288 9.62996C130.68 8.64996 131.183 7.75396 131.799 6.94196C132.415 6.12996 133.283 5.31796 134.403 4.50596C135.523 3.69396 136.826 3.00796 138.31 2.44796C139.822 1.85996 141.669 1.39796 143.853 1.06196C146.093 0.725964 148.557 0.557963 151.245 0.557963ZM198.454 14.88C198.426 14.152 198.328 13.48 198.16 12.864C197.936 12.22 197.558 11.562 197.026 10.89C196.438 10.19 195.71 9.60196 194.842 9.12596C193.974 8.64996 192.77 8.24396 191.23 7.90796C189.97 7.65596 188.542 7.50196 186.946 7.44596H151.413C143.517 7.58596 139.569 10.064 139.569 14.88V15.342C139.569 16.266 139.752 17.134 140.116 17.946C140.48 18.786 141.067 19.598 141.879 20.382C142.719 21.222 144.007 21.88 145.743 22.356C147.367 22.804 149.299 23.042 151.54 23.07H186.778C188.878 23.014 190.684 22.776 192.196 22.356C193.932 21.908 195.233 21.278 196.101 20.466C196.969 19.654 197.571 18.842 197.907 18.03C198.271 17.19 198.454 16.322 198.454 15.426V14.88Z" fill="#BE434E"/>
  <path d="M222.408 19.584V30H212.37V0.641962H238.2C247.468 0.641962 252.102 3.17596 252.102 8.24396V8.70596C252.102 11.814 250.128 13.97 246.18 15.174C247.972 15.65 249.428 16.448 250.548 17.568C251.668 18.688 252.228 20.144 252.228 21.936V26.22L252.27 30H242.148C242.148 29.972 242.162 29.356 242.19 28.152V24.75C242.19 22.93 241.686 21.614 240.678 20.802C239.67 19.99 237.948 19.584 235.512 19.584H222.408ZM222.408 7.31996V13.074H237.612C238.984 13.074 239.992 12.808 240.636 12.276C241.308 11.744 241.644 11.044 241.644 10.176V10.134C241.644 9.29396 241.308 8.62196 240.636 8.11796C239.992 7.58596 238.984 7.31996 237.612 7.31996H222.408Z" fill="#BE434E"/>
  <path d="M256.708 0.515964H278.002C280.998 0.515964 283.699 0.697964 286.107 1.06196C288.515 1.42596 290.531 1.95796 292.155 2.65796C293.779 3.38596 295.151 4.16996 296.271 5.00996C297.447 5.87796 298.329 6.84396 298.917 7.90796C299.533 8.99996 299.981 10.064 300.261 11.1C300.513 12.164 300.64 13.284 300.64 14.46V15.636C300.64 17.064 300.472 18.38 300.136 19.584C299.772 20.816 299.085 22.09 298.077 23.406C297.069 24.722 295.753 25.842 294.129 26.766C292.533 27.69 290.349 28.46 287.577 29.076C284.805 29.664 281.627 29.958 278.043 29.958H256.708V0.515964ZM266.745 7.48796V22.902H277.204C285.8 22.902 290.098 20.368 290.098 15.3V15.048C290.098 10.008 285.8 7.48796 277.204 7.48796H266.745Z" fill="#BE434E"/>
  <path d="M322.049 30.546C318.857 30.518 316.071 30.266 313.691 29.79C311.311 29.286 309.477 28.684 308.189 27.984C306.901 27.256 305.865 26.388 305.081 25.38C304.325 24.372 303.849 23.448 303.653 22.608C303.429 21.796 303.317 20.928 303.317 20.004V19.584H313.775C313.943 21.74 315.217 23.14 317.597 23.784C318.857 24.092 320.453 24.246 322.385 24.246H324.695C326.207 24.246 327.607 24.162 328.895 23.994C330.211 23.826 331.177 23.588 331.793 23.28C332.381 22.944 332.773 22.608 332.969 22.272C333.165 21.936 333.277 21.558 333.305 21.138C333.305 20.494 333.123 19.99 332.759 19.626C332.395 19.262 331.597 18.94 330.365 18.66C329.077 18.38 327.257 18.212 324.905 18.156L321.755 18.114L319.361 18.03C308.945 17.778 303.737 14.908 303.737 9.41996V9.08396C303.765 8.13196 303.891 7.24996 304.115 6.43796C304.395 5.65396 304.913 4.85596 305.669 4.04396C306.453 3.23196 307.475 2.55996 308.735 2.02796C309.995 1.46796 311.675 1.00596 313.775 0.641962C315.903 0.277964 318.381 0.0959643 321.209 0.0959643H324.149C327.089 0.0959643 329.679 0.291964 331.919 0.683964C334.159 1.04796 335.937 1.52396 337.253 2.11196C338.597 2.67196 339.689 3.37196 340.529 4.21196C341.397 5.07996 341.985 5.91996 342.293 6.73196C342.601 7.57196 342.755 8.45396 342.755 9.37796V9.79796H332.339C332.283 9.46196 332.199 9.19596 332.087 8.99996C332.003 8.77596 331.765 8.48196 331.373 8.11796C331.009 7.72596 330.533 7.41796 329.945 7.19396C329.301 6.94196 328.405 6.73196 327.257 6.56396C326.025 6.36796 324.793 6.26997 323.561 6.26997H322.049C319.865 6.26997 318.129 6.40996 316.841 6.68996C315.553 6.96996 314.769 7.26396 314.489 7.57196C314.209 7.85196 314.069 8.25796 314.069 8.78996C314.097 9.29396 314.251 9.69996 314.531 10.008C314.839 10.344 315.553 10.652 316.673 10.932C317.821 11.184 319.431 11.31 321.503 11.31L323.855 11.352L326.879 11.394C332.843 11.506 337.155 12.262 339.815 13.662C342.475 15.034 343.805 17.19 343.805 20.13V20.676C343.805 21.768 343.679 22.748 343.427 23.616C343.147 24.456 342.601 25.324 341.789 26.22C341.005 27.116 339.941 27.872 338.597 28.488C337.281 29.076 335.461 29.566 333.137 29.958C330.813 30.35 328.111 30.546 325.031 30.546H322.049Z" fill="#BE434E"/>
</svg>
