<svg viewBox="0 0 308 24" fill="none" xmlns="http://www.w3.org/2000/svg">
  <path d="M0.825684 0.663986V23H8.40968V14.136H25.5617V9.04799H8.40968V5.71999H25.9777V0.663986H0.825684Z" fill="#BE434E"/>
  <path d="M36.4729 0.663986H28.8569V23H36.4729V0.663986Z" fill="#BE434E"/>
  <path d="M40.3264 0.631985V23.032H47.8464V8.18399L64.4224 23.032H71.9744V0.631985H64.4224V14.712L48.8384 0.631985H40.3264Z" fill="#BE434E"/>
  <path d="M75.8577 0.567986V23H92.0817C94.8337 23 97.2657 22.776 99.3457 22.296C101.458 21.848 103.122 21.272 104.37 20.568C105.586 19.864 106.578 19 107.378 17.976C108.146 16.984 108.658 16.024 108.914 15.064C109.202 14.136 109.33 13.144 109.33 12.088V11.16C109.33 10.264 109.234 9.43199 109.01 8.63199C108.818 7.83199 108.466 7.03199 108.018 6.19999C107.538 5.36799 106.866 4.63199 106.002 3.99199C105.138 3.31999 104.082 2.74399 102.834 2.19999C101.618 1.65598 100.082 1.27199 98.2257 0.983986C96.4017 0.695986 94.3217 0.567986 92.0497 0.567986H75.8577ZM83.5057 5.84799H91.4737C98.0337 5.84799 101.298 7.76799 101.298 11.64V11.8C101.298 15.672 98.0337 17.592 91.4737 17.592H83.5057V5.84799Z" fill="#BE434E"/>
  <path d="M145.006 23.064C147.342 23.064 149.422 22.776 151.246 22.232C153.07 21.688 154.51 20.984 155.566 20.152C156.59 19.32 157.454 18.36 158.126 17.272C158.766 16.152 159.214 15.128 159.47 14.168C159.694 13.24 159.79 12.28 159.79 11.352V0.631985H152.238V10.936C152.238 11.736 152.142 12.472 151.918 13.144C151.694 13.848 151.278 14.52 150.734 15.192C150.19 15.832 149.358 16.376 148.27 16.76C147.182 17.144 145.87 17.336 144.334 17.336C142.798 17.336 141.454 17.144 140.334 16.76C139.246 16.376 138.414 15.832 137.87 15.192C137.326 14.52 136.942 13.848 136.718 13.144C136.494 12.472 136.366 11.736 136.366 10.936V0.631985H128.814V11.352C128.814 12.024 128.846 12.664 128.942 13.336C129.038 13.976 129.23 14.712 129.518 15.48C129.806 16.28 130.19 17.016 130.638 17.72C131.086 18.424 131.726 19.096 132.494 19.768C133.262 20.44 134.158 21.016 135.182 21.496C136.206 21.976 137.454 22.36 138.926 22.648C140.398 22.936 142.03 23.064 143.822 23.064H145.006Z" fill="#BE434E"/>
  <path d="M176.516 23.416H178.756C181.124 23.416 183.204 23.288 184.964 22.968C186.724 22.68 188.1 22.328 189.124 21.848C190.148 21.4 190.948 20.824 191.556 20.152C192.164 19.448 192.58 18.776 192.772 18.136C192.964 17.496 193.06 16.76 193.06 15.928V15.512C193.06 13.24 192.068 11.608 190.02 10.552C188.004 9.49599 184.74 8.91999 180.164 8.85599L177.86 8.82399L176.068 8.79199C174.5 8.75999 173.284 8.66399 172.42 8.47199C171.556 8.24799 171.012 8.02399 170.788 7.79999C170.532 7.54399 170.436 7.25599 170.436 6.87199C170.436 6.45599 170.532 6.13599 170.756 5.91199C170.948 5.68799 171.556 5.46399 172.516 5.23999C173.508 5.04799 174.66 4.95199 176.516 4.95199H177.636C178.852 4.95199 179.556 5.01599 180.452 5.14399C181.348 5.30399 182.052 5.46399 182.5 5.62399C182.98 5.81599 183.332 6.03999 183.62 6.32799C183.908 6.61599 184.1 6.83999 184.164 6.99999C184.228 7.15999 184.292 7.38399 184.356 7.60799H192.292V7.31999C192.292 6.58399 192.164 5.91199 191.908 5.27199C191.684 4.66399 191.236 4.02398 190.596 3.38399C189.956 2.74399 189.124 2.19999 188.1 1.75199C187.076 1.30399 185.732 0.951986 184.004 0.663986C182.308 0.375986 180.324 0.247986 178.116 0.247986H175.844C173.7 0.247986 171.812 0.375986 170.212 0.663986C168.58 0.919985 167.3 1.27199 166.34 1.68799C165.38 2.10398 164.612 2.61599 164.036 3.22399C163.428 3.86399 163.044 4.47198 162.852 5.07999C162.66 5.68799 162.564 6.35999 162.564 7.06399V7.35199C162.564 11.512 166.532 13.72 174.468 13.912L176.26 13.944L178.66 14.008C180.484 14.04 181.86 14.168 182.82 14.36C183.78 14.584 184.42 14.84 184.676 15.096C184.932 15.384 185.06 15.768 185.06 16.248C185.06 16.6 184.996 16.888 184.836 17.144C184.676 17.4 184.388 17.624 183.908 17.88C183.46 18.136 182.724 18.296 181.732 18.424C180.708 18.552 180.068 18.648 178.532 18.648H176.772C172.1 18.648 170.372 17.464 170.212 15.096H162.244V15.416C162.244 16.12 162.308 16.792 162.468 17.4C162.628 18.008 163.012 18.712 163.588 19.48C164.164 20.248 164.964 20.92 165.924 21.464C166.916 22.008 168.324 22.456 170.148 22.84C171.94 23.224 174.084 23.416 176.516 23.416Z" fill="#BE434E"/>
  <path d="M228.881 0.567986C226.801 0.567986 224.945 0.727985 223.249 0.983986C221.553 1.23999 220.145 1.59199 218.993 2.00799C217.873 2.42399 216.881 2.96799 216.049 3.57598C215.185 4.21599 214.513 4.82399 214.065 5.43199C213.585 6.07199 213.201 6.74399 212.913 7.51199C212.625 8.24799 212.433 8.91999 212.337 9.49599C212.273 10.04 212.241 10.648 212.241 11.288V12.184C212.241 12.792 212.273 13.4 212.337 13.976C212.433 14.552 212.625 15.224 212.913 15.992C213.201 16.728 213.585 17.432 214.065 18.04C214.513 18.68 215.185 19.32 216.049 19.928C216.913 20.568 217.905 21.112 219.025 21.56C220.145 21.976 221.553 22.328 223.249 22.616C224.945 22.872 226.801 23 228.881 23H255.953C258.033 23 259.889 22.872 261.585 22.616C263.249 22.328 264.657 21.976 265.777 21.56C266.897 21.112 267.889 20.568 268.753 19.928C269.617 19.32 270.257 18.68 270.737 18.04C271.185 17.432 271.569 16.728 271.889 15.992C272.177 15.224 272.369 14.552 272.465 13.976C272.529 13.4 272.561 12.792 272.561 12.184V11.288C272.561 10.648 272.529 10.04 272.465 9.46399C272.369 8.88799 272.177 8.21599 271.889 7.47999C271.569 6.74399 271.185 6.07199 270.705 5.43199C270.257 4.82399 269.585 4.21599 268.721 3.57598C267.889 2.96799 266.897 2.42399 265.777 2.00799C264.625 1.59199 263.217 1.23999 261.553 0.983986C259.889 0.727985 258.033 0.567986 255.953 0.567986H228.881ZM264.817 11.512V11.928C264.817 12.6 264.689 13.272 264.433 13.912C264.177 14.52 263.697 15.128 263.057 15.736C262.385 16.344 261.393 16.856 260.081 17.208C258.929 17.528 257.553 17.688 255.953 17.72C255.729 17.752 229.233 17.752 229.105 17.752C227.377 17.72 225.905 17.528 224.689 17.176C223.345 16.824 222.353 16.312 221.713 15.704C221.073 15.096 220.625 14.456 220.369 13.848C220.113 13.208 219.985 12.568 219.985 11.864V11.512C219.985 7.83199 222.993 5.94398 228.977 5.81599C229.169 5.81599 255.793 5.81599 256.081 5.84799C257.297 5.87999 258.385 5.97599 259.345 6.19999C260.497 6.42399 261.425 6.74399 262.097 7.09599C262.769 7.47999 263.313 7.92799 263.761 8.43999C264.177 8.98399 264.465 9.46399 264.593 9.97599C264.753 10.456 264.817 10.968 264.817 11.512Z" fill="#BE434E"/>
  <path d="M275.451 0.631985V23.032H282.971V8.18399L299.547 23.032H307.099V0.631985H299.547V14.712L283.963 0.631985H275.451Z" fill="#BE434E"/>
</svg>
