<svg viewBox="0 0 182 27" fill="none" xmlns="http://www.w3.org/2000/svg">
  <path d="M16.2801 26.468C13.5441 26.444 11.1561 26.228 9.11612 25.82C7.07612 25.388 5.50412 24.872 4.40012 24.272C3.29612 23.648 2.40812 22.904 1.73612 22.04C1.08812 21.176 0.680121 20.384 0.512121 19.664C0.320121 18.968 0.224121 18.224 0.224121 17.432V17.072H9.18812C9.33212 18.92 10.4241 20.12 12.4641 20.672C13.5441 20.936 14.9121 21.068 16.5681 21.068H18.5481C19.8441 21.068 21.0441 20.996 22.1481 20.852C23.2761 20.708 24.1041 20.504 24.6321 20.24C25.1361 19.952 25.4721 19.664 25.6401 19.376C25.8081 19.088 25.9041 18.764 25.9281 18.404C25.9281 17.852 25.7721 17.42 25.4601 17.108C25.1481 16.796 24.4641 16.52 23.4081 16.28C22.3041 16.04 20.7441 15.896 18.7281 15.848L16.0281 15.812L13.9761 15.74C5.04812 15.524 0.584121 13.064 0.584121 8.35998V8.07198C0.608121 7.25598 0.716121 6.49998 0.908121 5.80398C1.14812 5.13198 1.59212 4.44798 2.24012 3.75198C2.91212 3.05598 3.78812 2.47998 4.86812 2.02398C5.94812 1.54398 7.38812 1.14798 9.18812 0.835979C11.0121 0.52398 13.1361 0.367981 15.5601 0.367981H18.0801C20.6001 0.367981 22.8201 0.535981 24.7401 0.871981C26.6601 1.18398 28.1841 1.59198 29.3121 2.09598C30.4641 2.57598 31.4001 3.17598 32.1201 3.89598C32.8641 4.63998 33.3681 5.35998 33.6321 6.05598C33.8961 6.77598 34.0281 7.53198 34.0281 8.32398V8.68398H25.1001C25.0521 8.39598 24.9801 8.16798 24.8841 7.99998C24.8121 7.80798 24.6081 7.55598 24.2721 7.24398C23.9601 6.90798 23.5521 6.64398 23.0481 6.45198C22.4961 6.23598 21.7281 6.05598 20.7441 5.91198C19.6881 5.74398 18.6321 5.65998 17.5761 5.65998H16.2801C14.4081 5.65998 12.9201 5.77998 11.8161 6.01998C10.7121 6.25998 10.0401 6.51198 9.80012 6.77598C9.56012 7.01598 9.44012 7.36398 9.44012 7.81998C9.46412 8.25198 9.59612 8.59998 9.83612 8.86398C10.1001 9.15198 10.7121 9.41598 11.6721 9.65598C12.6561 9.87198 14.0361 9.97998 15.8121 9.97998L17.8281 10.016L20.4201 10.052C25.5321 10.148 29.2281 10.796 31.5081 11.996C33.7881 13.172 34.9281 15.02 34.9281 17.54V18.008C34.9281 18.944 34.8201 19.784 34.6041 20.528C34.3641 21.248 33.8961 21.992 33.2001 22.76C32.5281 23.528 31.6161 24.176 30.4641 24.704C29.3361 25.208 27.7761 25.628 25.7841 25.964C23.7921 26.3 21.4761 26.468 18.8361 26.468H16.2801Z" fill="#BE434E"/>
  <path d="M38.2491 25.964V0.835979H46.8171V10.016H65.2491V0.835979H73.8171V25.964H65.2491V16.064H46.8171V25.964H38.2491Z" fill="#BE434E"/>
  <path d="M95.7563 0.76398H126.248C128.552 0.76398 130.652 0.90798 132.548 1.19598C134.42 1.50798 135.992 1.90398 137.264 2.38398C138.536 2.86398 139.652 3.45198 140.612 4.14798C141.572 4.84398 142.316 5.53998 142.844 6.23598C143.372 6.95598 143.804 7.72398 144.14 8.53998C144.476 9.35598 144.692 10.1 144.788 10.772C144.884 11.444 144.932 12.128 144.932 12.824V13.796C144.932 14.492 144.884 15.176 144.788 15.848C144.692 16.52 144.476 17.264 144.14 18.08C143.804 18.944 143.372 19.724 142.844 20.42C142.316 21.14 141.572 21.848 140.612 22.544C139.628 23.264 138.524 23.864 137.3 24.344C136.028 24.848 134.444 25.256 132.548 25.568C130.652 25.856 128.552 26 126.248 26H95.7563C93.4523 26 91.3403 25.856 89.4203 25.568C87.5243 25.256 85.9403 24.848 84.6683 24.344C83.3963 23.84 82.2923 23.24 81.3563 22.544C80.3723 21.824 79.6163 21.116 79.0883 20.42C78.5603 19.7 78.1283 18.92 77.7923 18.08C77.4803 17.24 77.2763 16.496 77.1803 15.848C77.0843 15.176 77.0363 14.492 77.0363 13.796V12.824C77.0363 12.104 77.0843 11.42 77.1803 10.772C77.2763 10.124 77.4803 9.37998 77.7923 8.53998C78.1283 7.69998 78.5603 6.93198 79.0883 6.23598C79.6163 5.53998 80.3603 4.84398 81.3203 4.14798C82.2803 3.45198 83.3963 2.86398 84.6683 2.38398C85.9643 1.87998 87.5483 1.48398 89.4203 1.19598C91.3403 0.90798 93.4523 0.76398 95.7563 0.76398ZM136.22 13.04C136.196 12.416 136.112 11.84 135.968 11.312C135.776 10.76 135.452 10.196 134.996 9.61998C134.492 9.01998 133.868 8.51598 133.124 8.10798C132.38 7.69998 131.348 7.35198 130.028 7.06398C128.948 6.84798 127.724 6.71598 126.356 6.66798H95.9003C89.1323 6.78798 85.7483 8.91198 85.7483 13.04V13.436C85.7483 14.228 85.9043 14.972 86.2163 15.668C86.5283 16.388 87.0323 17.084 87.7283 17.756C88.4483 18.476 89.5523 19.04 91.0403 19.448C92.4323 19.832 94.0883 20.036 96.0083 20.06H126.212C128.012 20.012 129.56 19.808 130.856 19.448C132.344 19.064 133.46 18.524 134.204 17.828C134.948 17.132 135.464 16.436 135.752 15.74C136.064 15.02 136.22 14.276 136.22 13.508V13.04Z" fill="#BE434E"/>
  <path d="M168.74 17.612H156.752V26H148.148V0.835979H168.74C177.284 0.835979 181.556 3.55998 181.556 9.00798V9.36798C181.556 14.864 177.284 17.612 168.74 17.612ZM156.752 6.55998V11.96H168.596C171.26 11.96 172.592 11.084 172.592 9.33198V9.22398C172.592 7.44798 171.26 6.55998 168.596 6.55998H156.752Z" fill="#BE434E"/>
</svg>
