<svg viewBox="0 0 174 18" fill="none" xmlns="http://www.w3.org/2000/svg">
  <path d="M0.490723 0.176025V17H12.6587C14.7227 17 16.5467 16.832 18.1067 16.472C19.6907 16.136 20.9387 15.704 21.8747 15.176C22.7867 14.648 23.5307 14 24.1307 13.232C24.7067 12.488 25.0907 11.768 25.2827 11.048C25.4987 10.352 25.5947 9.60803 25.5947 8.81603V8.12003C25.5947 7.44803 25.5227 6.82403 25.3547 6.22403C25.2107 5.62403 24.9467 5.02403 24.6107 4.40003C24.2507 3.77603 23.7467 3.22403 23.0987 2.74403C22.4507 2.24003 21.6587 1.80803 20.7227 1.40003C19.8107 0.992025 18.6587 0.704026 17.2667 0.488026C15.8987 0.272026 14.3387 0.176025 12.6347 0.176025H0.490723ZM6.22672 4.13603H12.2027C17.1227 4.13603 19.5707 5.57603 19.5707 8.48003V8.60003C19.5707 11.504 17.1227 12.944 12.2027 12.944H6.22672V4.13603Z" fill="#1C1C1C"/>
  <path d="M27.7485 0.176025V17H82.3245V13.088H33.4125V10.328H81.7485V6.48803H33.4125V3.99202H82.0845V0.176025H27.7485Z" fill="#1C1C1C"/>
  <path d="M84.8657 0.176025V17H104.45V13.088H90.5297V10.328H103.874V6.48803H90.5297V3.99202H104.186V0.176025H84.8657Z" fill="#1C1C1C"/>
  <path d="M106.439 0.224025V4.06403H118.319L106.247 13.76V16.808H126.767V12.872H114.191L126.599 3.24803V0.224025H106.439Z" fill="#1C1C1C"/>
  <path d="M128.928 0.176025V17H148.512V13.088H134.592V10.328H147.936V6.48803H134.592V3.99202H148.248V0.176025H128.928Z" fill="#1C1C1C"/>
  <path d="M156.765 11.072H164.253C165.645 11.072 166.629 11.288 167.205 11.768C167.781 12.224 168.069 12.968 168.069 14.024V15.968C168.069 16.448 168.069 17.024 168.069 17.024H173.829C173.829 17.024 173.829 15.872 173.829 14.864V12.392C173.829 11.36 173.517 10.544 172.869 9.89603C172.221 9.24803 171.381 8.79203 170.349 8.52803C172.629 7.85603 173.757 6.63203 173.757 4.85603V4.59203C173.757 1.68803 171.117 0.224025 165.813 0.224025H151.053V17.024H156.765V11.072ZM156.765 4.04003H165.453C166.245 4.04003 166.821 4.18403 167.205 4.49603C167.589 4.78403 167.781 5.19203 167.781 5.67203V5.69603C167.781 6.17603 167.589 6.58403 167.205 6.89603C166.821 7.18403 166.245 7.32803 165.453 7.32803H156.765V4.04003Z" fill="#1C1C1C"/>
</svg>
