<svg viewBox="0 0 289 31" fill="none" xmlns="http://www.w3.org/2000/svg">
  <path d="M0.327618 30V0.641962H14.5656L25.6536 18.912L36.7416 0.641962H50.5176V30H40.6056V9.67196L27.9636 30H22.5876L9.98762 9.67196V30H0.327618Z" fill="#BE434E"/>
  <path d="M55.5757 0.557963H150.664V7.23596H65.4877V11.604H150.118V18.324H65.4877V23.154H151.084V30H55.5757V0.557963Z" fill="#BE434E"/>
  <path d="M165.569 19.584V30H155.531V0.641962H181.361C190.629 0.641962 195.263 3.17596 195.263 8.24396V8.70596C195.263 11.814 193.289 13.97 189.341 15.174C191.133 15.65 192.589 16.448 193.709 17.568C194.829 18.688 195.389 20.144 195.389 21.936V26.22L195.431 30H185.309C185.309 29.972 185.323 29.356 185.351 28.152V24.75C185.351 22.93 184.847 21.614 183.839 20.802C182.831 19.99 181.109 19.584 178.673 19.584H165.569ZM165.569 7.31996V13.074H180.773C182.145 13.074 183.153 12.808 183.797 12.276C184.469 11.744 184.805 11.044 184.805 10.176V10.134C184.805 9.29396 184.469 8.62196 183.797 8.11796C183.153 7.58596 182.145 7.31996 180.773 7.31996H165.569Z" fill="#BE434E"/>
  <path d="M220.113 30.504C217.537 30.504 215.185 30.308 213.057 29.916C210.929 29.552 209.137 29.076 207.681 28.488C206.225 27.9 204.937 27.172 203.817 26.304C202.697 25.436 201.829 24.568 201.213 23.7C200.569 22.832 200.037 21.908 199.617 20.928C199.197 19.892 198.931 18.968 198.819 18.156C198.679 17.344 198.609 16.532 198.609 15.72V14.586C198.609 13.298 198.735 12.094 198.987 10.974C199.239 9.82596 199.813 8.55196 200.709 7.15196C201.633 5.75196 202.823 4.56196 204.279 3.58196C205.763 2.57396 207.863 1.73396 210.579 1.06196C213.295 0.361963 216.473 0.0119629 220.113 0.0119629H221.877C225.405 0.0119629 228.527 0.305963 231.243 0.893964C233.959 1.48196 236.059 2.20996 237.543 3.07796C238.999 3.91796 240.203 4.91196 241.155 6.05996C242.079 7.17996 242.681 8.17396 242.961 9.04196C243.241 9.93796 243.381 10.792 243.381 11.604V12.024H232.713C232.629 11.716 232.517 11.436 232.377 11.184C232.209 10.904 231.887 10.498 231.411 9.96596C230.851 9.40596 230.193 8.94396 229.437 8.57996C228.653 8.21596 227.533 7.87996 226.077 7.57196C224.593 7.26396 222.885 7.10996 220.953 7.10996C218.657 7.10996 216.697 7.33396 215.073 7.78196C213.449 8.22996 212.231 8.83196 211.419 9.58796C210.607 10.372 210.019 11.17 209.655 11.982C209.319 12.85 209.151 13.774 209.151 14.754V15.258C209.151 16.21 209.347 17.12 209.739 17.988C210.131 18.884 210.733 19.752 211.545 20.592C212.385 21.404 213.631 22.062 215.283 22.566C216.935 23.07 218.853 23.322 221.037 23.322C227.645 23.322 231.537 21.614 232.713 18.198C232.741 18.142 232.755 18.114 232.755 18.114H243.423V18.534C243.395 19.43 243.241 20.326 242.961 21.222C242.653 22.146 242.023 23.182 241.071 24.33C240.119 25.478 238.901 26.486 237.417 27.354C235.933 28.222 233.833 28.964 231.117 29.58C228.429 30.196 225.349 30.504 221.877 30.504H220.113Z" fill="#BE434E"/>
  <path d="M247.159 29.958V0.641962H257.155V11.352H278.659V0.641962H288.655V29.958H278.659V18.408H257.155V29.958H247.159Z" fill="#BE434E"/>
</svg>
