<svg width="253" height="19" viewBox="0 0 253 19" fill="none" xmlns="http://www.w3.org/2000/svg">
<path d="M6.47958 1.24802H0.767578V18H6.47958V1.24802Z" fill="#1C1C1C"/>
<path d="M9.3697 1.22402V18.024H15.0097V6.88802L27.4417 18.024H33.1057V1.22402H27.4417V11.784L15.7537 1.22402H9.3697Z" fill="#1C1C1C"/>
<path d="M46.0981 18H79.2661C81.0421 18 82.5781 17.904 83.8981 17.688C85.2181 17.472 86.2741 17.184 87.0181 16.848C87.7861 16.488 88.4101 16.056 88.8661 15.552C89.3221 15.048 89.6341 14.544 89.7781 14.04C89.9221 13.56 89.9941 13.008 89.9941 12.384V12.072C89.9941 10.392 89.2261 9.14402 87.7141 8.35202C86.2021 7.58402 83.7301 7.15202 80.3221 7.08002L78.5941 7.05602L45.7621 7.03202C44.5861 7.03202 43.6741 6.93602 43.0261 6.79202C42.3781 6.64802 41.9701 6.48002 41.8021 6.28802C41.6101 6.12002 41.5381 5.88002 41.5381 5.59202C41.5381 5.30402 41.6101 5.06402 41.7781 4.89602C41.9221 4.70402 42.3781 4.53602 43.0981 4.39202C43.8421 4.22402 44.7061 4.15202 46.0981 4.15202H78.4261C79.3381 4.15202 79.8421 4.20002 80.5381 4.32002C81.2101 4.41602 81.7141 4.53602 82.0741 4.68002C82.4101 4.80002 82.6981 4.99202 82.9141 5.18402C83.1301 5.40002 83.2501 5.56802 83.3221 5.68802C83.3701 5.83202 83.4181 5.97602 83.4421 6.16802H89.3941V5.92802C89.3941 5.40002 89.3221 4.89602 89.1301 4.41602C88.9621 3.93602 88.6261 3.45602 88.1461 2.97602C87.6421 2.49602 87.0181 2.08802 86.2741 1.75202C85.5061 1.44002 84.4741 1.15202 83.2021 0.936024C81.9301 0.744023 80.4421 0.624023 78.7621 0.624023H45.5941C43.9861 0.624023 42.5701 0.744023 41.3701 0.936024C40.1461 1.12802 39.1861 1.39202 38.4661 1.70402C37.7461 2.04002 37.1701 2.42402 36.7381 2.88002C36.2821 3.33602 35.9941 3.79202 35.8501 4.24802C35.7061 4.70402 35.6341 5.20802 35.6341 5.76002V5.95202C35.6341 9.09602 38.6101 10.728 44.5621 10.872L45.9061 10.896L79.1941 10.944C80.5621 10.968 81.5941 11.064 82.3141 11.232C83.0341 11.376 83.4901 11.568 83.6821 11.784C83.8981 12 83.9941 12.288 83.9941 12.648C83.9941 12.888 83.9221 13.128 83.8261 13.296C83.7061 13.488 83.4661 13.68 83.1301 13.848C82.7941 14.04 82.2421 14.184 81.4741 14.28C80.7301 14.376 80.2261 14.424 79.0981 14.424H46.2901C42.7861 14.424 41.4901 13.536 41.3701 11.76H35.3941V12C35.3941 12.528 35.4421 13.032 35.5621 13.488C35.6821 13.968 35.9701 14.496 36.4021 15.072C36.8341 15.648 37.4341 16.128 38.1541 16.536C38.8981 16.944 39.9541 17.304 41.3221 17.592C42.6661 17.88 44.2741 18 46.0981 18Z" fill="#1C1C1C"/>
<path d="M98.9167 18.024H104.701V5.20802H112.597V1.22402H91.0447V5.20802H98.9167V18.024Z" fill="#1C1C1C"/>
<path d="M134.096 18H140.288L130.472 1.17602H119.216L109.952 18H115.784L117.44 14.928H132.392L134.096 18ZM126.848 5.04002L130.256 11.112H119.48L122.768 5.04002H126.848Z" fill="#1C1C1C"/>
<path d="M152.337 18.288C156.369 18.288 159.297 17.328 161.145 15.384C161.169 16.488 161.193 18 161.193 18H165.321V8.61602H152.433V11.784H159.609V11.832C159.609 11.928 159.537 12.072 159.417 12.264C159.273 12.432 159.009 12.648 158.673 12.864C158.313 13.104 157.881 13.32 157.377 13.512C156.873 13.704 156.201 13.872 155.337 14.016C154.497 14.136 153.561 14.208 152.553 14.208C150.225 14.208 148.497 13.776 147.345 12.888C146.217 12 145.641 10.944 145.641 9.72002V9.45602C145.641 6.45602 147.969 4.94402 152.601 4.94402C156.321 4.94402 158.481 5.73602 159.105 7.32002H165.177V7.29602C165.177 6.76802 165.081 6.26402 164.889 5.76002C164.721 5.25602 164.361 4.70402 163.809 4.08002C163.281 3.48002 162.585 2.95202 161.745 2.52002C160.905 2.06402 159.729 1.70402 158.241 1.39202C156.753 1.10402 155.025 0.960023 153.081 0.960023H152.025C150.009 0.960023 148.233 1.12802 146.721 1.51202C145.185 1.89602 143.985 2.35202 143.121 2.92802C142.257 3.48002 141.537 4.15202 140.985 4.92002C140.433 5.68802 140.073 6.43202 139.905 7.10402C139.737 7.80002 139.665 8.49602 139.665 9.24002V9.86402C139.665 10.608 139.761 11.328 139.953 12.048C140.169 12.744 140.553 13.488 141.105 14.28C141.657 15.048 142.377 15.72 143.241 16.296C144.129 16.872 145.305 17.352 146.769 17.736C148.257 18.096 149.937 18.288 151.833 18.288H152.337Z" fill="#1C1C1C"/>
<path d="M173.636 12.072H181.124C182.516 12.072 183.5 12.288 184.076 12.768C184.652 13.224 184.94 13.968 184.94 15.024V16.968C184.94 17.448 184.94 18.024 184.94 18.024H190.7C190.7 18.024 190.7 16.872 190.7 15.864V13.392C190.7 12.36 190.388 11.544 189.74 10.896C189.092 10.248 188.252 9.79202 187.22 9.52802C189.5 8.85602 190.628 7.63202 190.628 5.85602V5.59202C190.628 2.68802 187.988 1.22402 182.684 1.22402H167.924V18.024H173.636V12.072ZM173.636 5.04002H182.324C183.116 5.04002 183.692 5.18402 184.076 5.49602C184.46 5.78402 184.652 6.19202 184.652 6.67202V6.69602C184.652 7.17602 184.46 7.58402 184.076 7.89602C183.692 8.18402 183.116 8.32802 182.324 8.32802H173.636V5.04002Z" fill="#1C1C1C"/>
<path d="M215.916 18H222.108L212.292 1.17602H201.036L191.772 18H197.604L199.26 14.928H214.212L215.916 18ZM208.668 5.04002L212.076 11.112H201.3L204.588 5.04002H208.668Z" fill="#1C1C1C"/>
<path d="M223.518 18.024H229.014V6.38402L236.238 18.024H239.31L246.51 6.38402V18.024H252.174V1.22402H244.326L237.966 11.688L231.654 1.22402H223.518V18.024Z" fill="#1C1C1C"/>
</svg>
