<svg viewBox="0 0 252 19" fill="none" xmlns="http://www.w3.org/2000/svg">
  <path d="M0.799316 18H16.6393C21.7033 18 24.2473 16.392 24.2473 13.152V12.84C24.2473 12.144 24.1033 11.52 23.8153 10.992C23.5513 10.44 23.1673 10.008 22.7113 9.69598C22.2553 9.40798 21.8473 9.16798 21.4633 8.99998C21.0793 8.83198 20.6953 8.68798 20.2873 8.61598C20.5753 8.54398 20.8633 8.42398 21.1273 8.27998C21.4153 8.15998 21.7273 7.96798 22.0633 7.70398C22.4233 7.46398 22.6873 7.12798 22.9033 6.71998C23.0953 6.31198 23.2153 5.83198 23.2153 5.32798V5.01598C23.2153 3.88798 22.7113 2.95198 21.6793 2.23198C20.6713 1.51198 18.9433 1.17598 16.4953 1.17598H0.799316V18ZM6.53532 4.72798H15.5113C16.8553 4.72798 17.5033 5.15998 17.5033 6.04798V6.09598C17.5033 7.00798 16.8553 7.46398 15.5113 7.46398H6.53532V4.72798ZM16.0153 11.04C17.5273 11.04 18.2713 11.544 18.2713 12.6V12.672C18.2713 13.128 18.1033 13.512 17.7913 13.824C17.4553 14.16 16.8553 14.328 16.0153 14.328H6.53532V11.04H16.0153Z" fill="#1C1C1C"/>
  <path d="M48.7913 18H54.9833L45.1673 1.17598H33.9113L24.6473 18H30.4793L32.1353 14.928H47.0873L48.7913 18ZM41.5433 5.03998L44.9513 11.112H34.1753L37.4633 5.03998H41.5433Z" fill="#1C1C1C"/>
  <path d="M56.3931 1.22397V18.024H62.0331V6.88798L74.4651 18.024H80.1291V1.22397H74.4651V11.784L62.7771 1.22397H56.3931Z" fill="#1C1C1C"/>
  <path d="M83.0415 1.17598V18H95.2095C97.2735 18 99.0975 17.832 100.658 17.472C102.242 17.136 103.49 16.704 104.426 16.176C105.338 15.648 106.082 15 106.682 14.232C107.258 13.488 107.642 12.768 107.834 12.048C108.05 11.352 108.146 10.608 108.146 9.81598V9.11998C108.146 8.44798 108.074 7.82398 107.906 7.22398C107.762 6.62398 107.498 6.02398 107.162 5.39998C106.802 4.77598 106.298 4.22398 105.65 3.74398C105.002 3.23998 104.21 2.80798 103.274 2.39998C102.362 1.99197 101.21 1.70398 99.8175 1.48798C98.4495 1.27198 96.8895 1.17598 95.1855 1.17598H83.0415ZM88.7775 5.13598H94.7535C99.6735 5.13598 102.122 6.57598 102.122 9.47998V9.59998C102.122 12.504 99.6735 13.944 94.7535 13.944H88.7775V5.13598Z" fill="#1C1C1C"/>
  <path d="M121.843 18H153.643C155.635 18 157.411 17.832 158.947 17.496C160.483 17.136 161.683 16.728 162.523 16.224C163.387 15.72 164.083 15.144 164.635 14.496C165.163 13.848 165.523 13.248 165.691 12.72C165.859 12.192 165.955 11.688 165.955 11.184V10.92H159.859C159.859 10.944 159.859 10.968 159.835 10.992C159.163 12.936 157.555 13.92 153.787 13.92C153.571 13.92 121.987 13.92 121.795 13.896C120.763 13.872 119.875 13.728 119.083 13.488C118.147 13.2 117.451 12.816 116.971 12.336C116.491 11.88 116.131 11.376 115.915 10.872C115.699 10.368 115.579 9.83998 115.579 9.31198V9.02398C115.579 8.44797 115.675 7.91998 115.891 7.43998C116.083 6.95998 116.419 6.50398 116.875 6.07198C117.355 5.63997 118.051 5.27998 118.987 5.03998C119.779 4.82398 120.715 4.70398 121.795 4.67998C121.963 4.65597 153.451 4.65597 153.619 4.65597C154.723 4.65597 155.203 4.75198 156.043 4.91998C156.907 5.08798 157.531 5.27998 157.987 5.49598C158.419 5.71198 158.779 5.97598 159.091 6.28798C159.403 6.59998 159.571 6.83998 159.667 6.98398C159.739 7.12798 159.787 7.29598 159.835 7.46398H165.931V7.22398C165.931 6.74398 165.859 6.26398 165.691 5.75997C165.547 5.25598 165.187 4.67998 164.659 4.03198C164.131 3.40798 163.435 2.83198 162.595 2.35198C161.755 1.84798 160.555 1.43997 158.995 1.10397C157.459 0.767975 155.683 0.599976 153.643 0.599976H121.843C119.779 0.599976 117.955 0.791976 116.419 1.17598C114.859 1.55997 113.659 2.06398 112.819 2.61598C111.979 3.19198 111.307 3.88798 110.779 4.67998C110.275 5.49598 109.939 6.21598 109.795 6.86398C109.651 7.51198 109.579 8.18398 109.579 8.92798V9.57598C109.579 10.032 109.603 10.512 109.675 10.968C109.747 11.448 109.915 11.952 110.155 12.528C110.395 13.104 110.683 13.656 111.043 14.136C111.403 14.64 111.907 15.144 112.555 15.624C113.203 16.104 113.923 16.536 114.763 16.872C115.579 17.208 116.611 17.472 117.835 17.688C119.059 17.904 120.379 18 121.843 18Z" fill="#1C1C1C"/>
  <path d="M189.698 18H195.89L186.074 1.17598H174.818L165.553 18H171.385L173.042 14.928H187.993L189.698 18ZM182.45 5.03998L185.857 11.112H175.081L178.37 5.03998H182.45Z" fill="#1C1C1C"/>
  <path d="M197.299 18.024H202.795V6.38398L210.019 18.024H213.091L220.291 6.38398V18.024H225.955V1.22397H218.107L211.747 11.688L205.435 1.22397H197.299V18.024Z" fill="#1C1C1C"/>
  <path d="M242.598 12.432C248.286 12.432 251.118 10.584 251.118 6.91198V6.69598C251.118 3.04798 248.286 1.22397 242.598 1.22397H228.87V18.024H234.582V12.432H242.598ZM234.582 5.03998H242.502C244.254 5.03998 245.142 5.63998 245.142 6.81598V6.88798C245.142 8.06398 244.254 8.66398 242.502 8.66398H234.582V5.03998Z" fill="#1C1C1C"/>
</svg>
