<svg viewBox="0 0 153 18" fill="none" xmlns="http://www.w3.org/2000/svg">
  <path d="M25.1313 17H31.3233L21.5073 0.176025H10.2513L0.987305 17H6.8193L8.4753 13.928H23.4273L25.1313 17ZM17.8833 4.04003L21.2913 10.112H10.5153L13.8033 4.04003H17.8833Z" fill="#1C1C1C"/>
  <path d="M78.3571 11.408C84.0451 11.408 86.9011 9.58403 86.9011 5.91203V5.67203C86.9011 2.04803 84.0451 0.224025 78.3571 0.224025H32.7331V17H38.4451V11.408H78.3571ZM38.4451 4.04003H78.2611C80.0131 4.04003 80.9011 4.61603 80.9011 5.81603V5.88803C80.9011 7.06403 80.0131 7.64003 78.2611 7.64003H38.4451V4.04003Z" fill="#1C1C1C"/>
  <path d="M102.594 11.432C108.282 11.432 111.114 9.58403 111.114 5.91203V5.69603C111.114 2.04803 108.282 0.224025 102.594 0.224025H88.8659V17.024H94.5779V11.432H102.594ZM94.5779 4.04003H102.498C104.25 4.04003 105.138 4.64003 105.138 5.81603V5.88803C105.138 7.06403 104.25 7.66403 102.498 7.66403H94.5779V4.04003Z" fill="#1C1C1C"/>
  <path d="M113.077 0.224025V17.024H131.533V12.848H118.789V0.224025H113.077Z" fill="#1C1C1C"/>
  <path d="M133.28 0.176025V17H152.864V13.088H138.944V10.328H152.288V6.48803H138.944V3.99202H152.6V0.176025H133.28Z" fill="#1C1C1C"/>
</svg>
