<svg width="191" height="19" viewBox="0 0 191 19" fill="none" xmlns="http://www.w3.org/2000/svg">
<path d="M24.5649 18H30.7569L20.9409 1.17603H9.6849L0.420898 18H6.2529L7.9089 14.928H22.8609L24.5649 18ZM17.3169 5.04004L20.7249 11.112H9.9489L13.2369 5.04004H17.3169Z" fill="#1C1C1C"/>
<path d="M32.1667 18.024H37.6627V6.38404L44.8867 18.024H47.9587L55.1587 6.38404V18.024H60.8227V1.22403H52.9747L46.6147 11.688L40.3027 1.22403H32.1667V18.024Z" fill="#1C1C1C"/>
<path d="M109.001 18H115.193L105.353 1.17603H71.561L62.297 18H68.129L69.785 14.928H107.273L109.001 18ZM101.729 5.06403L105.137 11.136H71.825L75.113 5.06403H101.729Z" fill="#1C1C1C"/>
<path d="M116.107 1.22403V5.06403H127.987L115.915 14.76V17.808H136.435V13.872H123.859L136.267 4.24804V1.22403H116.107Z" fill="#1C1C1C"/>
<path d="M150.507 0.936035C148.899 0.936035 147.459 1.03204 146.139 1.24804C144.843 1.44003 143.739 1.70404 142.851 2.04004C141.987 2.37604 141.219 2.78404 140.571 3.26404C139.899 3.74403 139.395 4.22404 139.011 4.70404C138.651 5.18403 138.363 5.71204 138.147 6.28803C137.907 6.86404 137.763 7.39204 137.715 7.82404C137.643 8.28004 137.619 8.73604 137.619 9.24004V9.91203C137.619 10.392 137.643 10.872 137.715 11.328C137.763 11.76 137.907 12.288 138.147 12.864C138.363 13.44 138.651 13.968 139.011 14.472C139.395 14.952 139.899 15.432 140.571 15.936C141.243 16.416 142.011 16.824 142.875 17.184C143.739 17.52 144.843 17.784 146.139 18C147.459 18.216 148.899 18.312 150.507 18.312H151.275C152.883 18.312 154.323 18.216 155.619 18C156.939 17.784 158.019 17.52 158.883 17.184C159.747 16.824 160.515 16.416 161.187 15.936C161.859 15.432 162.363 14.952 162.723 14.472C163.083 13.968 163.371 13.44 163.611 12.864C163.827 12.288 163.995 11.76 164.043 11.328C164.115 10.872 164.139 10.392 164.139 9.91203V9.24004C164.139 8.73604 164.115 8.28004 164.043 7.82404C163.995 7.36804 163.827 6.86404 163.611 6.28803C163.371 5.71204 163.083 5.18403 162.699 4.70404C162.339 4.22404 161.835 3.74403 161.163 3.26404C160.515 2.78404 159.747 2.37604 158.883 2.04004C157.995 1.70404 156.915 1.44003 155.619 1.24804C154.323 1.03204 152.883 0.936035 151.275 0.936035H150.507ZM158.139 9.72004C158.139 10.248 158.043 10.776 157.827 11.256C157.635 11.736 157.275 12.216 156.771 12.672C156.267 13.152 155.499 13.536 154.467 13.8C153.579 14.064 152.499 14.184 151.275 14.232C151.083 14.232 150.795 14.232 150.675 14.232C149.355 14.208 148.203 14.064 147.243 13.8C146.211 13.512 145.467 13.128 144.963 12.648C144.483 12.168 144.123 11.688 143.931 11.208C143.715 10.728 143.619 10.2 143.619 9.67204V9.40804C143.619 6.55203 145.947 5.08803 150.579 4.99203C150.723 4.99203 151.155 4.99203 151.371 5.01604C152.307 5.04004 153.147 5.11204 153.891 5.28004C154.779 5.47204 155.499 5.71204 156.027 6.00004C156.555 6.26404 156.987 6.62403 157.299 7.03204C157.635 7.44004 157.851 7.82404 157.971 8.20804C158.091 8.56804 158.139 8.97604 158.139 9.40804V9.72004Z" fill="#1C1C1C"/>
<path d="M166.323 1.22403V18.024H171.963V6.88803L184.395 18.024H190.059V1.22403H184.395V11.784L172.707 1.22403H166.323Z" fill="#1C1C1C"/>
</svg>
