<svg viewBox="0 0 577 72" fill="none" xmlns="http://www.w3.org/2000/svg">
  <path d="M64.5124 29.1736L70.7934 12.2314H72.4463L79.0992 29.1736H88.8926L101.496 0.619834H91.9091L84.0579 19.7107L77.8595 5.3719H65.2975L59.6364 20.2479L51.6198 0.619834H41L53.7686 29.1736H64.5124Z" fill="white"/>
  <path d="M104.008 29.5041H113.843V18.1405H134.959V29.5041H144.835V0.661158H134.959V11.157H113.843V0.661158H104.008V29.5041Z" fill="white"/>
  <path d="M170.017 0.537191C167.331 0.537191 164.935 0.743802 162.745 1.07438C160.554 1.40496 158.736 1.8595 157.249 2.3967C155.802 2.93389 154.521 3.63636 153.447 4.42149C152.331 5.24793 151.464 6.03306 150.885 6.81818C150.265 7.64463 149.769 8.5124 149.397 9.50413C149.026 10.4545 148.778 11.3223 148.654 12.0661C148.571 12.7686 148.53 13.5537 148.53 14.3802V15.5372C148.53 16.3223 148.571 17.1074 148.654 17.8512C148.778 18.595 149.026 19.4628 149.397 20.4545C149.769 21.405 150.265 22.3141 150.885 23.0992C151.464 23.9256 152.331 24.7521 153.447 25.5372C154.563 26.3636 155.844 27.0661 157.29 27.6446C158.736 28.1818 160.554 28.6364 162.745 29.0083C164.935 29.3388 167.331 29.5041 170.017 29.5041H204.976C207.662 29.5041 210.059 29.3388 212.249 29.0083C214.397 28.6364 216.216 28.1818 217.662 27.6446C219.108 27.0661 220.389 26.3636 221.505 25.5372C222.621 24.7521 223.447 23.9256 224.067 23.0992C224.645 22.3141 225.141 21.405 225.554 20.4545C225.926 19.4628 226.174 18.595 226.298 17.8512C226.381 17.1074 226.422 16.3223 226.422 15.5372V14.3802C226.422 13.5537 226.381 12.7686 226.298 12.0248C226.174 11.281 225.926 10.4132 225.554 9.46281C225.141 8.5124 224.645 7.64463 224.026 6.81818C223.447 6.03306 222.579 5.24793 221.464 4.42149C220.389 3.63636 219.108 2.93389 217.662 2.3967C216.174 1.8595 214.356 1.40496 212.207 1.07438C210.059 0.743802 207.662 0.537191 204.976 0.537191H170.017ZM216.422 14.6694V15.2066C216.422 16.0744 216.257 16.9421 215.926 17.7686C215.596 18.5537 214.976 19.3388 214.15 20.124C213.282 20.9091 212.001 21.5702 210.307 22.0248C208.819 22.438 207.042 22.6446 204.976 22.686C204.687 22.7273 170.472 22.7273 170.307 22.7273C168.075 22.686 166.174 22.438 164.604 21.9835C162.869 21.5289 161.588 20.8678 160.761 20.0826C159.935 19.2975 159.356 18.4711 159.026 17.686C158.695 16.8595 158.53 16.0331 158.53 15.124V14.6694C158.53 9.91736 162.414 7.47934 170.141 7.31405C170.389 7.31405 204.769 7.31405 205.141 7.35537C206.712 7.39669 208.116 7.52066 209.356 7.80992C210.844 8.09917 212.042 8.5124 212.91 8.96694C213.778 9.46281 214.48 10.0413 215.059 10.7025C215.596 11.405 215.968 12.0248 216.133 12.686C216.34 13.3058 216.422 13.9669 216.422 14.6694Z" fill="white"/>
  <path d="M263.797 29.5455H273.756V7.47934H287.351V0.619834H250.243V7.47934H263.797V29.5455Z" fill="white"/>
  <path d="M290.241 29.5041H300.076V18.1405H321.191V29.5041H331.067V0.661158H321.191V11.157H300.076V0.661158H290.241V29.5041Z" fill="white"/>
  <path d="M336.044 0.537191V29.5041H369.763V22.7686H345.796V18.0165H368.771V11.405H345.796V7.10744H369.308V0.537191H336.044Z" fill="white"/>
  <path d="M396.25 0.661158V29.5041H406.044V18.0579H428.193V11.4876H406.044V7.19008H428.73V0.661158H396.25Z" fill="white"/>
  <path d="M440.175 7.02479L441.208 3.30579H435.878L436.952 7.02479L433.522 4.38017L431.291 8.01653L435.836 9.21488L431.291 10.4545L433.522 14.0909L436.952 11.4463L435.878 15.2066H441.208L440.175 11.4463L443.646 14.0909L445.795 10.4545L441.208 9.21488L445.795 8.01653L443.646 4.38017L440.175 7.02479Z" fill="#BE434E"/>
  <path d="M469.475 30H471.211C474.641 30 477.698 29.7107 480.343 29.1322C482.988 28.5124 485.054 27.7686 486.5 26.9421C487.988 26.0744 489.186 25.0826 490.136 23.9669C491.045 22.8099 491.665 21.8182 491.996 20.9091C492.285 20 492.409 19.0909 492.409 18.2231V17.8099H481.913C481.913 17.8512 481.913 17.8926 481.872 17.9339C480.715 21.281 476.913 22.9752 470.426 22.9752C468.236 22.9752 466.335 22.7273 464.723 22.2314C463.112 21.7355 461.913 21.0744 461.087 20.2479C460.26 19.4215 459.641 18.595 459.269 17.7273C458.897 16.8595 458.69 15.9504 458.69 15V14.5455C458.69 13.5537 458.855 12.6446 459.227 11.8182C459.558 10.9917 460.136 10.2066 460.922 9.42149C461.748 8.67769 462.946 8.09917 464.558 7.68595C466.128 7.23141 468.07 7.02479 470.343 7.02479C472.244 7.02479 473.897 7.19008 475.384 7.47934C476.831 7.7686 477.946 8.09917 478.69 8.47108C479.434 8.84298 480.054 9.29752 480.591 9.83471C481.128 10.3719 481.459 10.7851 481.583 11.0331C481.707 11.281 481.789 11.5289 481.872 11.8595H492.368V11.405C492.368 10.6198 492.244 9.79339 491.996 8.92562C491.707 8.05785 491.128 7.06612 490.178 5.95041C489.269 4.83471 488.07 3.8843 486.624 3.01653C485.178 2.19008 483.112 1.4876 480.467 0.86777C477.781 0.289257 474.723 0 471.211 0H469.475C465.922 0 462.781 0.330579 460.136 1.03306C457.45 1.69422 455.384 2.52066 453.938 3.5124C452.492 4.50413 451.335 5.70248 450.426 7.06612C449.558 8.42975 448.979 9.66942 448.731 10.7851C448.483 11.9008 448.36 13.0992 448.36 14.3388V15.4959C448.36 16.281 448.401 17.0661 448.525 17.8926C448.649 18.6777 448.938 19.5868 449.351 20.5785C449.764 21.5702 450.26 22.4793 450.88 23.3471C451.5 24.2149 452.368 25.0413 453.483 25.9091C454.599 26.7355 455.839 27.438 457.285 28.0579C458.69 28.6364 460.467 29.0909 462.574 29.4628C464.682 29.8347 466.955 30 469.475 30Z" fill="white"/>
  <path d="M506.002 29.5455V15.9091L522.655 29.5455H535.548L516.581 13.843L534.721 0.619834H522.159L506.002 12.686V0.619834H496.168V29.5455H506.002Z" fill="white"/>
  <path d="M41.6851 71.4613H52.3757L35.4282 42.4144H15.9945L0 71.4613H10.0691L12.9282 66.1575H38.7431L41.6851 71.4613ZM29.1713 49.0856L35.0552 59.5691H16.4503L22.1271 49.0856H29.1713Z" fill="white"/>
  <path d="M64.6716 61.2265H77.5998C80.0031 61.2265 81.702 61.5994 82.6965 62.4282C83.691 63.2155 84.1882 64.5 84.1882 66.3232V69.6796C84.1882 70.5083 84.1882 71.5028 84.1882 71.5028H94.133C94.133 71.5028 94.133 69.5138 94.133 67.7735V63.5055C94.133 61.7238 93.5943 60.3149 92.4755 59.1961C91.3567 58.0773 89.9064 57.2901 88.1247 56.8343C92.0611 55.674 94.0086 53.5608 94.0086 50.4945V50.0387C94.0086 45.0249 89.4506 42.4972 80.2932 42.4972H54.8098V71.5028H64.6716V61.2265ZM64.6716 49.0856H79.6716C81.039 49.0856 82.0335 49.3343 82.6965 49.8729C83.3595 50.3702 83.691 51.0746 83.691 51.9033V51.9448C83.691 52.7735 83.3595 53.4779 82.6965 54.0166C82.0335 54.5138 81.039 54.7624 79.6716 54.7624H64.6716V49.0856Z" fill="white"/>
  <path d="M98.5527 42.4144V71.4613H132.365V64.7072H108.332V59.942H131.37V53.3122H108.332V49.0028H131.909V42.4144H98.5527Z" fill="white"/>
  <path d="M168.829 61.2265H181.757C184.161 61.2265 185.86 61.5994 186.854 62.4282C187.849 63.2155 188.346 64.5 188.346 66.3232V69.6796C188.346 70.5083 188.346 71.5028 188.346 71.5028H198.291C198.291 71.5028 198.291 69.5138 198.291 67.7735V63.5055C198.291 61.7238 197.752 60.3149 196.633 59.1961C195.514 58.0773 194.064 57.2901 192.282 56.8343C196.219 55.674 198.166 53.5608 198.166 50.4945V50.0387C198.166 45.0249 193.608 42.4972 184.451 42.4972H158.967V71.5028H168.829V61.2265ZM168.829 49.0856H183.829C185.197 49.0856 186.191 49.3343 186.854 49.8729C187.517 50.3702 187.849 51.0746 187.849 51.9033V51.9448C187.849 52.7735 187.517 53.4779 186.854 54.0166C186.191 54.5138 185.197 54.7624 183.829 54.7624H168.829V49.0856Z" fill="#BE434E"/>
  <path d="M202.71 42.4144V71.4613H296.937V64.7072H212.489V59.942H295.942V53.3122H212.489V49.0028H296.523V42.4144H202.71Z" fill="#BE434E"/>
  <path d="M301.324 42.4144V71.4613H322.333C325.896 71.4613 329.045 71.1713 331.739 70.5497C334.473 69.9696 336.628 69.2238 338.244 68.3122C339.819 67.4006 341.103 66.2818 342.139 64.9558C343.134 63.6713 343.797 62.4282 344.128 61.1851C344.501 59.9834 344.667 58.6989 344.667 57.3315V56.1298C344.667 54.9696 344.543 53.8923 344.252 52.8564C344.004 51.8204 343.548 50.7845 342.968 49.7072C342.346 48.6298 341.476 47.6768 340.357 46.8481C339.239 45.9779 337.871 45.232 336.255 44.5276C334.681 43.8232 332.692 43.326 330.288 42.953C327.927 42.5801 325.233 42.4144 322.291 42.4144H301.324ZM311.228 49.2514H321.545C330.04 49.2514 334.266 51.7376 334.266 56.7514V56.9586C334.266 61.9724 330.04 64.4586 321.545 64.4586H311.228V49.2514Z" fill="#BE434E"/>
  <path d="M370.601 71.5028H380.09V51.4061L392.562 71.5028H397.866L410.297 51.4061V71.5028H420.076V42.4972H406.526L395.546 60.5635L384.648 42.4972H370.601V71.5028Z" fill="#BE434E"/>
  <path d="M425.108 42.4144V71.4613H458.92V64.7072H434.887V59.942H457.925V53.3122H434.887V49.0028H458.464V42.4144H425.108Z" fill="#BE434E"/>
  <path d="M480.71 72H483.611C486.677 72 489.37 71.8342 491.649 71.4199C493.928 71.047 495.71 70.5912 497.036 69.9696C498.362 69.3895 499.398 68.6436 500.185 67.7735C500.973 66.8619 501.511 65.9917 501.76 65.163C502.009 64.3343 502.133 63.3812 502.133 62.3039V61.7652C502.133 58.8232 500.848 56.7099 498.196 55.3425C495.586 53.9751 491.359 53.2293 485.434 53.1464L482.451 53.105L480.13 53.0635C478.1 53.0221 476.525 52.8978 475.406 52.6492C474.288 52.3591 473.583 52.0691 473.293 51.779C472.962 51.4475 472.837 51.0746 472.837 50.5773C472.837 50.0387 472.962 49.6243 473.252 49.3343C473.5 49.0442 474.288 48.7541 475.531 48.4641C476.815 48.2155 478.307 48.0912 480.71 48.0912H482.16C483.735 48.0912 484.647 48.174 485.807 48.3398C486.967 48.547 487.879 48.7541 488.459 48.9613C489.08 49.2099 489.536 49.5 489.909 49.8729C490.282 50.2459 490.531 50.5359 490.614 50.7431C490.696 50.9503 490.779 51.2403 490.862 51.5304H501.138V51.1575C501.138 50.2044 500.973 49.3343 500.641 48.5055C500.351 47.7182 499.771 46.8895 498.942 46.0608C498.113 45.232 497.036 44.5276 495.71 43.9475C494.384 43.3674 492.644 42.9116 490.406 42.5387C488.21 42.1657 485.641 42 482.782 42H479.84C477.064 42 474.619 42.1657 472.547 42.5387C470.434 42.8702 468.776 43.326 467.533 43.8646C466.29 44.4033 465.296 45.0663 464.55 45.8536C463.763 46.6823 463.265 47.4696 463.017 48.2569C462.768 49.0442 462.644 49.9144 462.644 50.826V51.1989C462.644 56.5856 467.782 59.4448 478.058 59.6934L480.379 59.7348L483.486 59.8177C485.848 59.8591 487.63 60.0249 488.873 60.2735C490.116 60.5635 490.945 60.895 491.276 61.2265C491.608 61.5994 491.774 62.0967 491.774 62.7182C491.774 63.174 491.691 63.547 491.484 63.8785C491.276 64.2099 490.904 64.5 490.282 64.8315C489.702 65.163 488.749 65.3702 487.464 65.5359C486.138 65.7017 485.31 65.826 483.321 65.826H481.042C474.992 65.826 472.754 64.2928 472.547 61.2265H462.23V61.6409C462.23 62.5525 462.312 63.4227 462.52 64.2099C462.727 64.9972 463.224 65.9088 463.97 66.9033C464.716 67.8978 465.752 68.768 466.995 69.4724C468.279 70.1768 470.102 70.7569 472.464 71.2541C474.785 71.7514 477.561 72 480.71 72Z" fill="#BE434E"/>
  <path d="M523.442 72H526.342C529.408 72 532.102 71.8342 534.381 71.4199C536.66 71.047 538.442 70.5912 539.767 69.9696C541.093 69.3895 542.129 68.6436 542.917 67.7735C543.704 66.8619 544.243 65.9917 544.491 65.163C544.74 64.3343 544.864 63.3812 544.864 62.3039V61.7652C544.864 58.8232 543.58 56.7099 540.928 55.3425C538.317 53.9751 534.091 53.2293 528.165 53.1464L525.182 53.105L522.861 53.0635C520.831 53.0221 519.256 52.8978 518.138 52.6492C517.019 52.3591 516.314 52.0691 516.024 51.779C515.693 51.4475 515.569 51.0746 515.569 50.5773C515.569 50.0387 515.693 49.6243 515.983 49.3343C516.232 49.0442 517.019 48.7541 518.262 48.4641C519.547 48.2155 521.038 48.0912 523.442 48.0912H524.892C526.466 48.0912 527.378 48.174 528.538 48.3398C529.698 48.547 530.61 48.7541 531.19 48.9613C531.812 49.2099 532.267 49.5 532.64 49.8729C533.013 50.2459 533.262 50.5359 533.345 50.7431C533.428 50.9503 533.511 51.2403 533.593 51.5304H543.87V51.1575C543.87 50.2044 543.704 49.3343 543.372 48.5055C543.082 47.7182 542.502 46.8895 541.674 46.0608C540.845 45.232 539.767 44.5276 538.442 43.9475C537.116 43.3674 535.375 42.9116 533.138 42.5387C530.942 42.1657 528.372 42 525.513 42H522.571C519.795 42 517.35 42.1657 515.279 42.5387C513.165 42.8702 511.508 43.326 510.265 43.8646C509.022 44.4033 508.027 45.0663 507.281 45.8536C506.494 46.6823 505.997 47.4696 505.748 48.2569C505.5 49.0442 505.375 49.9144 505.375 50.826V51.1989C505.375 56.5856 510.513 59.4448 520.79 59.6934L523.11 59.7348L526.218 59.8177C528.58 59.8591 530.361 60.0249 531.605 60.2735C532.848 60.5635 533.676 60.895 534.008 61.2265C534.339 61.5994 534.505 62.0967 534.505 62.7182C534.505 63.174 534.422 63.547 534.215 63.8785C534.008 64.2099 533.635 64.5 533.013 64.8315C532.433 65.163 531.48 65.3702 530.196 65.5359C528.87 65.7017 528.041 65.826 526.052 65.826H523.773C517.723 65.826 515.486 64.2928 515.279 61.2265H504.961V61.6409C504.961 62.5525 505.044 63.4227 505.251 64.2099C505.458 64.9972 505.955 65.9088 506.701 66.9033C507.447 67.8978 508.483 68.768 509.726 69.4724C511.011 70.1768 512.834 70.7569 515.196 71.2541C517.516 71.7514 520.292 72 523.442 72Z" fill="#BE434E"/>
  <path d="M555.979 63.2155H564.101V63.0083C564.101 62.3453 564.225 61.8481 564.474 61.5166C564.764 61.2265 565.386 60.9365 566.463 60.7293L569.405 59.9834C571.808 59.4447 573.59 58.616 574.626 57.5387C575.703 56.4613 576.242 55.0939 576.242 53.4779V53.2707C576.242 52.5663 576.159 51.9033 575.952 51.3232C575.786 50.7431 575.413 50.1215 574.833 49.5C574.253 48.8785 573.507 48.3812 572.554 47.9254C571.601 47.511 570.358 47.1796 568.701 46.8895C567.085 46.6409 565.178 46.4751 563.024 46.4751H561.035C559.212 46.4751 557.554 46.5994 556.104 46.7652C554.612 46.9724 553.41 47.1796 552.499 47.4696C551.546 47.8011 550.759 48.174 550.054 48.6298C549.391 49.0856 548.894 49.5 548.521 49.9144C548.189 50.3287 547.941 50.826 547.734 51.4475C547.526 52.0276 547.444 52.4834 547.402 52.8978C547.361 53.2707 547.361 53.7265 547.361 54.2652V54.6796H555.482C555.524 54.3481 555.565 54.0994 555.565 53.9751C555.607 53.8094 555.731 53.5608 555.979 53.2293C556.187 52.8564 556.518 52.5663 556.933 52.4006C557.347 52.1934 558.01 52.0276 558.88 51.8619C559.75 51.6961 560.828 51.6133 562.029 51.6133C563.811 51.6133 565.178 51.6961 566.09 51.9033C567.043 52.0691 567.582 52.2762 567.747 52.4834C567.913 52.6906 567.996 52.9807 567.996 53.3122C567.996 53.7265 567.789 54.0994 567.375 54.4309C566.919 54.7624 566.049 55.0939 564.681 55.384L561.698 56.0884C559.377 56.6271 557.844 57.2072 557.098 57.9116C556.352 58.5746 555.979 59.5276 555.979 60.7707V63.2155ZM564.433 65.3702H555.855V71.0884H564.433V65.3702Z" fill="#BE434E"/>
</svg>
