<svg viewBox="0 0 202 19" fill="none" xmlns="http://www.w3.org/2000/svg">
  <path d="M9.91753 17.808H15.5815V11.376L24.9895 1.22403H18.6055L12.8935 7.32003L7.27753 1.22403H0.269531L9.91753 11.376V17.808Z" fill="#1C1C1C"/>
  <path d="M36.6862 0.936035C35.0782 0.936035 33.6382 1.03204 32.3182 1.24804C31.0222 1.44003 29.9182 1.70404 29.0302 2.04004C28.1662 2.37604 27.3982 2.78404 26.7502 3.26404C26.0782 3.74403 25.5742 4.22404 25.1902 4.70404C24.8302 5.18403 24.5422 5.71204 24.3262 6.28803C24.0862 6.86404 23.9422 7.39204 23.8942 7.82404C23.8222 8.28004 23.7982 8.73604 23.7982 9.24004V9.91203C23.7982 10.392 23.8222 10.872 23.8942 11.328C23.9422 11.76 24.0862 12.288 24.3262 12.864C24.5422 13.44 24.8302 13.968 25.1902 14.472C25.5742 14.952 26.0782 15.432 26.7502 15.936C27.4222 16.416 28.1902 16.824 29.0542 17.184C29.9182 17.52 31.0222 17.784 32.3182 18C33.6382 18.216 35.0782 18.312 36.6862 18.312H37.4542C39.0622 18.312 40.5022 18.216 41.7982 18C43.1182 17.784 44.1982 17.52 45.0622 17.184C45.9262 16.824 46.6942 16.416 47.3662 15.936C48.0382 15.432 48.5422 14.952 48.9022 14.472C49.2622 13.968 49.5502 13.44 49.7902 12.864C50.0062 12.288 50.1742 11.76 50.2222 11.328C50.2942 10.872 50.3182 10.392 50.3182 9.91203V9.24004C50.3182 8.73604 50.2942 8.28004 50.2222 7.82404C50.1742 7.36804 50.0062 6.86404 49.7902 6.28803C49.5502 5.71204 49.2622 5.18403 48.8782 4.70404C48.5182 4.22404 48.0142 3.74403 47.3422 3.26404C46.6942 2.78404 45.9262 2.37604 45.0622 2.04004C44.1742 1.70404 43.0942 1.44003 41.7982 1.24804C40.5022 1.03204 39.0622 0.936035 37.4542 0.936035H36.6862ZM44.3182 9.72004C44.3182 10.248 44.2222 10.776 44.0062 11.256C43.8142 11.736 43.4542 12.216 42.9502 12.672C42.4462 13.152 41.6782 13.536 40.6462 13.8C39.7582 14.064 38.6782 14.184 37.4542 14.232C37.2622 14.232 36.9742 14.232 36.8542 14.232C35.5342 14.208 34.3822 14.064 33.4222 13.8C32.3902 13.512 31.6462 13.128 31.1422 12.648C30.6622 12.168 30.3022 11.688 30.1102 11.208C29.8942 10.728 29.7982 10.2 29.7982 9.67204V9.40804C29.7982 6.55203 32.1262 5.08803 36.7582 4.99203C36.9022 4.99203 37.3342 4.99203 37.5502 5.01604C38.4862 5.04004 39.3262 5.11204 40.0702 5.28004C40.9582 5.47204 41.6782 5.71204 42.2062 6.00004C42.7342 6.26404 43.1662 6.62403 43.4782 7.03204C43.8142 7.44004 44.0302 7.82404 44.1502 8.20804C44.2702 8.56804 44.3182 8.97604 44.3182 9.40804V9.72004Z" fill="#1C1C1C"/>
  <path d="M95.3185 18C97.0705 18 98.6305 17.808 99.9985 17.4C101.391 16.968 102.447 16.464 103.239 15.84C104.007 15.216 104.655 14.472 105.159 13.656C105.639 12.84 105.975 12.072 106.167 11.352C106.335 10.632 106.407 9.93604 106.407 9.24004V1.20003H100.743V8.92804C100.743 9.50404 100.671 10.08 100.503 10.584C100.335 11.088 100.023 11.592 99.6145 12.096C99.2065 12.6 98.5825 12.984 97.7665 13.272C97.0945 13.512 96.0865 13.656 95.1025 13.704C94.8865 13.704 63.5905 13.704 63.3745 13.704C62.2225 13.704 61.5505 13.56 60.7105 13.272C59.8945 12.984 59.2705 12.6 58.8625 12.096C58.4545 11.592 58.1665 11.088 57.9985 10.584C57.8305 10.08 57.7345 9.50404 57.7345 8.92804V1.20003H52.0705V9.24004C52.0705 9.72004 52.0945 10.224 52.1665 10.704C52.2385 11.184 52.3825 11.736 52.5985 12.336C52.8145 12.936 53.1025 13.488 53.4385 13.992C53.7745 14.52 54.2545 15.024 54.8305 15.528C55.4065 16.032 56.0785 16.464 56.8465 16.824C57.6145 17.184 58.5505 17.472 59.6545 17.688C60.7585 17.904 61.9825 18 63.3265 18H95.3185Z" fill="#1C1C1C"/>
  <path d="M115.542 18.024H121.326V5.20803H129.222V1.22403H107.67V5.20803H115.542V18.024Z" fill="#1C1C1C"/>
  <path d="M142.66 18.048C144.412 18.048 145.972 17.832 147.34 17.424C148.708 17.016 149.788 16.488 150.58 15.864C151.348 15.24 151.996 14.52 152.5 13.704C152.98 12.864 153.316 12.096 153.508 11.376C153.676 10.68 153.748 9.96004 153.748 9.26404V1.22403H148.084V8.95204C148.084 9.55204 148.012 10.104 147.844 10.608C147.676 11.136 147.364 11.64 146.956 12.144C146.548 12.624 145.924 13.032 145.108 13.32C144.292 13.608 143.308 13.752 142.156 13.752C141.004 13.752 139.996 13.608 139.156 13.32C138.34 13.032 137.716 12.624 137.308 12.144C136.9 11.64 136.612 11.136 136.444 10.608C136.276 10.104 136.18 9.55204 136.18 8.95204V1.22403H130.516V9.26404C130.516 9.76804 130.54 10.248 130.612 10.752C130.684 11.232 130.828 11.784 131.044 12.36C131.26 12.96 131.548 13.512 131.884 14.04C132.22 14.568 132.7 15.072 133.276 15.576C133.852 16.08 134.524 16.512 135.292 16.872C136.06 17.232 136.996 17.52 138.1 17.736C139.204 17.952 140.428 18.048 141.772 18.048H142.66Z" fill="#1C1C1C"/>
  <path d="M156.213 18H172.053C177.117 18 179.661 16.392 179.661 13.152V12.84C179.661 12.144 179.517 11.52 179.229 10.992C178.965 10.44 178.581 10.008 178.125 9.69604C177.669 9.40804 177.261 9.16804 176.877 9.00004C176.493 8.83204 176.109 8.68804 175.701 8.61603C175.989 8.54404 176.277 8.42404 176.541 8.28004C176.829 8.16004 177.141 7.96804 177.477 7.70404C177.837 7.46404 178.101 7.12804 178.317 6.72004C178.509 6.31204 178.629 5.83204 178.629 5.32804V5.01604C178.629 3.88804 178.125 2.95203 177.093 2.23204C176.085 1.51203 174.357 1.17603 171.909 1.17603H156.213V18ZM161.949 4.72803H170.925C172.269 4.72803 172.917 5.16004 172.917 6.04804V6.09604C172.917 7.00803 172.269 7.46404 170.925 7.46404H161.949V4.72803ZM171.429 11.04C172.941 11.04 173.685 11.544 173.685 12.6V12.672C173.685 13.128 173.517 13.512 173.205 13.824C172.869 14.16 172.269 14.328 171.429 14.328H161.949V11.04H171.429Z" fill="#1C1C1C"/>
  <path d="M181.878 1.17603V18H201.462V14.088H187.542V11.328H200.886V7.48804H187.542V4.99203H201.198V1.17603H181.878Z" fill="#1C1C1C"/>
</svg>
