<svg width="138" height="18" viewBox="0 0 138 18" fill="none" xmlns="http://www.w3.org/2000/svg">
<path d="M8.35833 17.024H14.1423V4.20802H22.0383V0.224025H0.486328V4.20802H8.35833V17.024Z" fill="#1C1C1C"/>
<path d="M29.429 0.248026H23.717V17H29.429V0.248026Z" fill="#1C1C1C"/>
<path d="M32.3191 17H74.9431C76.9831 17 78.8071 16.832 80.3911 16.496C81.9751 16.136 83.2231 15.704 84.1351 15.176C85.0471 14.648 85.8151 14 86.3911 13.256C86.9671 12.512 87.3751 11.768 87.5671 11.072C87.7591 10.376 87.8551 9.63203 87.8551 8.81603V8.14403C87.8551 7.47203 87.7831 6.82403 87.6391 6.22403C87.4711 5.62403 87.2311 5.02403 86.8711 4.40003C86.5351 3.80003 86.0311 3.24803 85.3591 2.74403C84.7111 2.26403 83.9191 1.80803 83.0071 1.42403C82.0711 1.01603 80.9191 0.704026 79.5511 0.488026C78.1591 0.296025 76.6231 0.176025 74.9191 0.176025H32.3191V17ZM38.0551 4.16003H74.4631C79.3831 4.16003 81.8551 5.60003 81.8551 8.48003V8.62403C81.8551 11.504 79.3831 12.968 74.4631 12.968H38.0551V4.16003Z" fill="#1C1C1C"/>
<path d="M111.389 17H117.581L107.765 0.176025H96.5092L87.2452 17H93.0772L94.7332 13.928H109.685L111.389 17ZM104.141 4.04003L107.549 10.112H96.7732L100.061 4.04003H104.141Z" fill="#1C1C1C"/>
<path d="M118.991 0.224025V17.024H137.447V12.848H124.703V0.224025H118.991Z" fill="#1C1C1C"/>
</svg>
