<svg viewBox="0 0 172 19" fill="none" xmlns="http://www.w3.org/2000/svg">
  <path d="M11.6684 18.312H13.3484C15.1244 18.312 16.6844 18.216 18.0044 17.976C19.3244 17.76 20.3564 17.496 21.1244 17.136C21.8924 16.8 22.4924 16.368 22.9484 15.864C23.4044 15.336 23.7164 14.832 23.8604 14.352C24.0044 13.872 24.0764 13.32 24.0764 12.696V12.384C24.0764 10.68 23.3324 9.45604 21.7964 8.66403C20.2844 7.87204 17.8364 7.44004 14.4044 7.39204L12.6764 7.36804L11.3324 7.34404C10.1564 7.32004 9.24436 7.24804 8.59636 7.10404C7.94836 6.93604 7.54036 6.76804 7.37236 6.60004C7.18036 6.40804 7.10836 6.19204 7.10836 5.90404C7.10836 5.59204 7.18036 5.35204 7.34836 5.18403C7.49236 5.01604 7.94836 4.84803 8.66836 4.68004C9.41236 4.53603 10.2764 4.46404 11.6684 4.46404H12.5084C13.4204 4.46404 13.9484 4.51203 14.6204 4.60804C15.2924 4.72803 15.8204 4.84803 16.1564 4.96803C16.5164 5.11204 16.7804 5.28004 16.9964 5.49604C17.2124 5.71204 17.3564 5.88004 17.4044 6.00004C17.4524 6.12003 17.5004 6.28803 17.5484 6.45603H23.5004V6.24004C23.5004 5.68804 23.4044 5.18403 23.2124 4.70404C23.0444 4.24804 22.7084 3.76803 22.2284 3.28803C21.7484 2.80804 21.1244 2.40003 20.3564 2.06403C19.5884 1.72803 18.5804 1.46404 17.2844 1.24804C16.0124 1.03204 14.5244 0.936035 12.8684 0.936035H11.1644C9.55636 0.936035 8.14036 1.03204 6.94036 1.24804C5.71636 1.44003 4.75636 1.70404 4.03636 2.01604C3.31636 2.32803 2.74036 2.71204 2.30836 3.16804C1.85236 3.64803 1.56436 4.10403 1.42036 4.56004C1.27636 5.01604 1.20436 5.52003 1.20436 6.04804V6.26404C1.20436 9.38404 4.18036 11.04 10.1324 11.184L11.4764 11.208L13.2764 11.256C14.6444 11.28 15.6764 11.376 16.3964 11.52C17.1164 11.688 17.5964 11.88 17.7884 12.072C17.9804 12.288 18.0764 12.576 18.0764 12.936C18.0764 13.2 18.0284 13.416 17.9084 13.608C17.7884 13.8 17.5724 13.968 17.2124 14.16C16.8764 14.352 16.3244 14.472 15.5804 14.568C14.8124 14.664 14.3324 14.736 13.1804 14.736H11.8604C8.35636 14.736 7.06036 13.848 6.94036 12.072H0.964355V12.312C0.964355 12.84 1.01236 13.344 1.13236 13.8C1.25236 14.256 1.54036 14.784 1.97236 15.36C2.40436 15.936 3.00436 16.44 3.72436 16.848C4.46836 17.256 5.52436 17.592 6.89236 17.88C8.23636 18.168 9.84436 18.312 11.6684 18.312Z" fill="#1C1C1C"/>
  <path d="M40.0664 12.432C45.7544 12.432 48.5864 10.584 48.5864 6.91204V6.69604C48.5864 3.04804 45.7544 1.22403 40.0664 1.22403H26.3384V18.024H32.0504V12.432H40.0664ZM32.0504 5.04004H39.9704C41.7224 5.04004 42.6104 5.64003 42.6104 6.81604V6.88803C42.6104 8.06403 41.7224 8.66403 39.9704 8.66403H32.0504V5.04004Z" fill="#1C1C1C"/>
  <path d="M62.2853 1.17603C60.7253 1.17603 59.3333 1.29603 58.0613 1.48804C56.7893 1.68004 55.7333 1.94404 54.8693 2.25604C54.0293 2.56804 53.2853 2.97603 52.6613 3.43203C52.0133 3.91204 51.5093 4.36804 51.1733 4.82404C50.8133 5.30403 50.5253 5.80804 50.3093 6.38404C50.0933 6.93604 49.9493 7.44003 49.8773 7.87204C49.8293 8.28003 49.8053 8.73604 49.8053 9.21603V9.88803C49.8053 10.344 49.8293 10.8 49.8773 11.232C49.9493 11.664 50.0933 12.168 50.3093 12.744C50.5253 13.296 50.8133 13.824 51.1733 14.28C51.5093 14.76 52.0133 15.24 52.6613 15.696C53.3093 16.176 54.0533 16.584 54.8933 16.92C55.7333 17.232 56.7893 17.496 58.0613 17.712C59.3333 17.904 60.7253 18 62.2853 18H82.5893C84.1493 18 85.5413 17.904 86.8133 17.712C88.0613 17.496 89.1173 17.232 89.9573 16.92C90.7973 16.584 91.5413 16.176 92.1893 15.696C92.8373 15.24 93.3173 14.76 93.6773 14.28C94.0133 13.824 94.3013 13.296 94.5413 12.744C94.7573 12.168 94.9013 11.664 94.9733 11.232C95.0213 10.8 95.0453 10.344 95.0453 9.88803V9.21603C95.0453 8.73604 95.0213 8.28004 94.9733 7.84804C94.9013 7.41604 94.7573 6.91204 94.5413 6.36004C94.3013 5.80804 94.0133 5.30403 93.6533 4.82404C93.3173 4.36804 92.8133 3.91204 92.1653 3.43203C91.5413 2.97603 90.7973 2.56804 89.9573 2.25604C89.0933 1.94404 88.0373 1.68004 86.7893 1.48804C85.5413 1.29603 84.1493 1.17603 82.5893 1.17603H62.2853ZM89.2373 9.38404V9.69604C89.2373 10.2 89.1413 10.704 88.9493 11.184C88.7573 11.64 88.3973 12.096 87.9173 12.552C87.4133 13.008 86.6693 13.392 85.6853 13.656C84.8213 13.896 83.7893 14.016 82.5893 14.04C82.4213 14.064 62.5493 14.064 62.4533 14.064C61.1573 14.04 60.0533 13.896 59.1413 13.632C58.1333 13.368 57.3893 12.984 56.9093 12.528C56.4293 12.072 56.0933 11.592 55.9013 11.136C55.7093 10.656 55.6133 10.176 55.6133 9.64804V9.38404C55.6133 6.62403 57.8693 5.20803 62.3573 5.11204C62.5013 5.11204 82.4693 5.11204 82.6853 5.13604C83.5973 5.16004 84.4133 5.23204 85.1333 5.40003C85.9973 5.56804 86.6933 5.80804 87.1973 6.07204C87.7013 6.36004 88.1093 6.69604 88.4453 7.08004C88.7573 7.48803 88.9733 7.84804 89.0693 8.23204C89.1893 8.59204 89.2373 8.97604 89.2373 9.38404Z" fill="#1C1C1C"/>
  <path d="M103.885 18.024H109.669V5.20803H117.565V1.22403H96.0134V5.20803H103.885V18.024Z" fill="#1C1C1C"/>
  <path d="M124.956 1.24804H119.244V18H124.956V1.24804Z" fill="#1C1C1C"/>
  <path d="M127.822 1.24804V18H133.51V11.352H146.374V7.53604H133.51V5.04004H146.686V1.24804H127.822Z" fill="#1C1C1C"/>
  <path d="M156.91 17.808H162.574V11.376L171.982 1.22403H165.598L159.886 7.32003L154.27 1.22403H147.262L156.91 11.376V17.808Z" fill="#1C1C1C"/>
</svg>
