<svg viewBox="0 0 259 31" fill="none" xmlns="http://www.w3.org/2000/svg">
  <path d="M18.732 30.45C15.54 30.422 12.754 30.17 10.374 29.694C7.99402 29.19 6.16001 28.588 4.87201 27.888C3.58401 27.16 2.54801 26.292 1.76401 25.284C1.00801 24.276 0.531999 23.352 0.335999 22.512C0.111998 21.7 0 20.832 0 19.908V19.488H10.458C10.626 21.644 11.9 23.044 14.28 23.688C15.54 23.996 17.136 24.15 19.068 24.15H21.378C22.89 24.15 24.29 24.066 25.578 23.898C26.894 23.73 27.86 23.492 28.476 23.184C29.064 22.848 29.456 22.512 29.652 22.176C29.848 21.84 29.96 21.462 29.988 21.042C29.988 20.398 29.806 19.894 29.442 19.53C29.078 19.166 28.28 18.844 27.048 18.564C25.76 18.284 23.94 18.116 21.588 18.06L18.438 18.018L16.044 17.934C5.62801 17.682 0.420013 14.812 0.420013 9.324V8.988C0.448013 8.036 0.574004 7.154 0.798004 6.342C1.078 5.558 1.59602 4.76 2.35202 3.948C3.13602 3.136 4.158 2.464 5.418 1.932C6.678 1.372 8.35801 0.909998 10.458 0.545998C12.586 0.181999 15.064 0 17.892 0H20.832C23.772 0 26.362 0.196 28.602 0.588C30.842 0.951999 32.62 1.428 33.936 2.016C35.28 2.576 36.372 3.276 37.212 4.116C38.08 4.984 38.668 5.824 38.976 6.636C39.284 7.476 39.438 8.358 39.438 9.282V9.702H29.022C28.966 9.366 28.882 9.1 28.77 8.904C28.686 8.68 28.448 8.386 28.056 8.022C27.692 7.63 27.216 7.322 26.628 7.098C25.984 6.846 25.088 6.636 23.94 6.468C22.708 6.272 21.476 6.174 20.244 6.174H18.732C16.548 6.174 14.812 6.314 13.524 6.594C12.236 6.874 11.452 7.168 11.172 7.476C10.892 7.756 10.752 8.162 10.752 8.694C10.78 9.198 10.934 9.604 11.214 9.912C11.522 10.248 12.236 10.556 13.356 10.836C14.504 11.088 16.114 11.214 18.186 11.214L20.538 11.256L23.562 11.298C29.526 11.41 33.838 12.166 36.498 13.566C39.158 14.938 40.488 17.094 40.488 20.034V20.58C40.488 21.672 40.362 22.652 40.11 23.52C39.83 24.36 39.284 25.228 38.472 26.124C37.688 27.02 36.624 27.776 35.28 28.392C33.964 28.98 32.144 29.47 29.82 29.862C27.496 30.254 24.794 30.45 21.714 30.45H18.732Z" fill="black"/>
  <path d="M56.0805 29.904V7.476H42.3045V0.545998H80.0205V7.476H66.2025V29.904H56.0805Z" fill="black"/>
  <path d="M103.538 29.988H102.026C99.6742 29.988 97.5182 29.806 95.5582 29.442C93.6262 29.05 91.9882 28.546 90.6442 27.93C89.3282 27.286 88.1522 26.53 87.1162 25.662C86.1082 24.738 85.3102 23.828 84.7222 22.932C84.1062 22.008 83.6162 21.042 83.2522 20.034C82.8602 18.998 82.6082 18.046 82.4962 17.178C82.3562 16.31 82.2862 15.456 82.2862 14.616V0.545998H92.2402V14.07C92.2402 15.106 92.3802 16.072 92.6602 16.968C92.9962 17.864 93.5002 18.746 94.1722 19.614C94.9002 20.482 95.9922 21.168 97.4482 21.672C98.9042 22.176 100.654 22.428 102.698 22.428C104.714 22.428 106.436 22.176 107.864 21.672C109.292 21.168 110.37 20.482 111.098 19.614C111.798 18.718 112.302 17.836 112.61 16.968C112.918 16.072 113.072 15.106 113.072 14.07V0.545998H122.984V14.616C122.984 15.82 122.83 17.052 122.522 18.312C122.214 19.572 121.626 20.916 120.758 22.344C119.89 23.8 118.77 25.074 117.398 26.166C116.026 27.258 114.136 28.168 111.728 28.896C109.348 29.624 106.618 29.988 103.538 29.988Z" fill="black"/>
  <path d="M127.256 0.588H222.05V7.224H137.21V11.592H221.504V18.27H179.357H137.21V29.904H127.256V0.588Z" fill="black"/>
  <path d="M225.816 0.545998H258.87V7.224H235.77V11.55H258.282V18.27H235.77V29.862H225.816V0.545998Z" fill="black"/>
</svg>
