<svg viewBox="0 0 272 42" fill="none" xmlns="http://www.w3.org/2000/svg">
  <path d="M62.4285 17V4.18398H54.5565V0.223977H76.1085V4.18398H68.2125V17H62.4285Z" fill="white"/>
  <path d="M89.5472 0.175977H109.875C111.411 0.175977 112.811 0.271977 114.075 0.463978C115.323 0.671977 116.371 0.935977 117.219 1.25598C118.067 1.57598 118.811 1.96798 119.451 2.43198C120.091 2.89598 120.587 3.35998 120.939 3.82398C121.291 4.30398 121.579 4.81598 121.803 5.35998C122.027 5.90398 122.171 6.39998 122.235 6.84798C122.299 7.29598 122.331 7.75198 122.331 8.21598V8.86398C122.331 9.32798 122.299 9.78398 122.235 10.232C122.171 10.68 122.027 11.176 121.803 11.72C121.579 12.296 121.291 12.816 120.939 13.28C120.587 13.76 120.091 14.232 119.451 14.696C118.795 15.176 118.059 15.576 117.243 15.896C116.395 16.232 115.339 16.504 114.075 16.712C112.811 16.904 111.411 17 109.875 17H89.5472C88.0112 17 86.6032 16.904 85.3232 16.712C84.0592 16.504 83.0032 16.232 82.1552 15.896C81.3072 15.56 80.5712 15.16 79.9472 14.696C79.2912 14.216 78.7872 13.744 78.4352 13.28C78.0832 12.8 77.7952 12.28 77.5712 11.72C77.3632 11.16 77.2272 10.664 77.1632 10.232C77.0992 9.78398 77.0672 9.32798 77.0672 8.86398V8.21598C77.0672 7.73598 77.0992 7.27998 77.1632 6.84798C77.2272 6.41598 77.3632 5.91998 77.5712 5.35998C77.7952 4.79998 78.0832 4.28798 78.4352 3.82398C78.7872 3.35998 79.2832 2.89598 79.9232 2.43198C80.5632 1.96798 81.3072 1.57598 82.1552 1.25598C83.0192 0.919977 84.0752 0.655977 85.3232 0.463978C86.6032 0.271977 88.0112 0.175977 89.5472 0.175977ZM116.523 8.35998C116.507 7.94398 116.451 7.55998 116.355 7.20798C116.227 6.83998 116.011 6.46398 115.707 6.07998C115.371 5.67998 114.955 5.34398 114.459 5.07198C113.963 4.79998 113.275 4.56798 112.395 4.37598C111.675 4.23198 110.859 4.14398 109.947 4.11198H89.6432C85.1312 4.19198 82.8752 5.60798 82.8752 8.35998V8.62398C82.8752 9.15198 82.9792 9.64798 83.1872 10.112C83.3952 10.592 83.7312 11.056 84.1952 11.504C84.6752 11.984 85.4112 12.36 86.4032 12.632C87.3312 12.888 88.4352 13.024 89.7152 13.04H109.851C111.051 13.008 112.083 12.872 112.947 12.632C113.939 12.376 114.683 12.016 115.179 11.552C115.675 11.088 116.019 10.624 116.211 10.16C116.419 9.67998 116.523 9.18398 116.523 8.67198V8.35998Z" fill="white"/>
  <path d="M137.342 16.976V0.151978H153.062C155.494 0.151978 157.214 0.511978 158.222 1.23198C159.246 1.95198 159.758 2.87198 159.758 3.99198V4.30398C159.758 4.83198 159.654 5.29598 159.446 5.69598C159.238 6.12798 158.966 6.46398 158.63 6.70398C158.278 6.94398 157.966 7.13598 157.694 7.27998C157.406 7.40798 157.126 7.51198 156.854 7.59198C157.254 7.68798 157.638 7.81598 158.006 7.97598C158.406 8.15198 158.83 8.39198 159.278 8.69598C159.726 8.99998 160.086 9.42398 160.358 9.96798C160.646 10.512 160.79 11.128 160.79 11.816V12.152C160.79 15.368 158.262 16.976 153.206 16.976H137.342ZM143.078 3.70398V6.43998H152.078C153.406 6.43998 154.07 5.99198 154.07 5.09598V5.04798C154.07 4.15198 153.406 3.70398 152.078 3.70398H143.078ZM152.558 10.016H143.078V13.328H152.558C153.422 13.328 154.014 13.16 154.334 12.824C154.67 12.488 154.838 12.104 154.838 11.672V11.576C154.838 10.536 154.078 10.016 152.558 10.016Z" fill="white"/>
  <path d="M163.006 0.175977H217.342V3.99198H168.67V6.48798H217.03V10.328H168.67V13.088H217.582V17H163.006V0.175977Z" fill="white"/>
  <path d="M25.1519 40.976L23.4239 37.904H8.47189L6.83989 40.976H0.983887L10.2479 24.152H21.5279L31.3439 40.976H25.1519ZM17.8799 28.04H13.7999L10.5359 34.112H21.3119L17.8799 28.04Z" fill="#BC414B"/>
  <path d="M32.7057 24.224H39.1137L50.8017 34.784V24.224H56.4417V41H50.8017L38.3697 29.888V41H32.7057V24.224Z" fill="#BC414B"/>
  <path d="M59.3541 24.224H65.7621L77.4501 34.784V24.224H83.0901V41H77.4501L65.0181 29.888V41H59.3541V24.224Z" fill="#BC414B"/>
  <path d="M98.1706 23.912H98.9626C100.547 23.912 101.987 24.016 103.283 24.224C104.579 24.432 105.667 24.696 106.547 25.016C107.427 25.352 108.195 25.76 108.851 26.24C109.507 26.736 110.019 27.216 110.387 27.68C110.755 28.176 111.051 28.704 111.275 29.264C111.515 29.84 111.667 30.352 111.731 30.8C111.795 31.264 111.827 31.736 111.827 32.216V32.912C111.827 33.392 111.795 33.856 111.731 34.304C111.667 34.752 111.515 35.264 111.275 35.84C111.051 36.432 110.755 36.968 110.387 37.448C110.019 37.944 109.507 38.432 108.851 38.912C108.195 39.408 107.427 39.824 106.547 40.16C105.683 40.496 104.595 40.776 103.283 41C101.987 41.208 100.547 41.312 98.9626 41.312H98.1706C96.5866 41.312 95.1386 41.208 93.8266 41C92.5146 40.776 91.4186 40.496 90.5386 40.16C89.6746 39.824 88.9146 39.408 88.2586 38.912C87.5866 38.416 87.0666 37.928 86.6986 37.448C86.3306 36.952 86.0346 36.416 85.8106 35.84C85.5866 35.264 85.4426 34.752 85.3786 34.304C85.3146 33.84 85.2826 33.376 85.2826 32.912V32.216C85.2826 31.72 85.3146 31.256 85.3786 30.824C85.4586 30.36 85.6026 29.848 85.8106 29.288C86.0346 28.712 86.3306 28.176 86.6986 27.68C87.0826 27.2 87.5946 26.72 88.2346 26.24C88.8906 25.76 89.6586 25.352 90.5386 25.016C91.4346 24.696 92.5306 24.432 93.8266 24.224C95.1386 24.016 96.5866 23.912 98.1706 23.912ZM105.827 32.696V32.384C105.827 31.968 105.771 31.568 105.659 31.184C105.531 30.8 105.307 30.408 104.987 30.008C104.651 29.608 104.227 29.264 103.715 28.976C103.171 28.688 102.451 28.448 101.555 28.256C100.803 28.112 99.9626 28.024 99.0346 27.992C98.7786 27.992 98.5226 27.992 98.2666 27.992C93.6106 28.072 91.2826 29.536 91.2826 32.384V32.648C91.2986 33.208 91.4026 33.72 91.5946 34.184C91.8186 34.68 92.1706 35.16 92.6506 35.624C93.1466 36.12 93.9066 36.504 94.9306 36.776C95.8906 37.048 97.0346 37.192 98.3626 37.208C98.5386 37.208 98.7306 37.208 98.9386 37.208C100.171 37.176 101.235 37.04 102.131 36.8C103.171 36.528 103.939 36.152 104.435 35.672C104.947 35.192 105.307 34.712 105.515 34.232C105.723 33.752 105.827 33.24 105.827 32.696Z" fill="#BC414B"/>
  <path d="M156.803 41H124.835C123.491 41 122.259 40.896 121.139 40.688C120.035 40.464 119.099 40.176 118.331 39.824C117.579 39.472 116.907 39.04 116.315 38.528C115.739 38.016 115.283 37.504 114.947 36.992C114.595 36.464 114.315 35.904 114.107 35.312C113.883 34.72 113.739 34.176 113.675 33.68C113.595 33.184 113.555 32.696 113.555 32.216V24.176H119.243V31.904C119.243 32.496 119.323 33.048 119.483 33.56C119.675 34.088 119.963 34.6 120.347 35.096C120.763 35.592 121.387 35.984 122.219 36.272C123.067 36.56 123.955 36.704 124.883 36.704C145.779 36.704 156.355 36.696 156.611 36.68C157.731 36.632 158.619 36.496 159.275 36.272C160.091 35.984 160.707 35.592 161.123 35.096C161.539 34.584 161.827 34.072 161.987 33.56C162.163 33.048 162.251 32.496 162.251 31.904V24.176H167.915V32.216C167.915 32.92 167.827 33.624 167.651 34.328C167.475 35.064 167.139 35.832 166.643 36.632C166.147 37.464 165.507 38.192 164.723 38.816C163.955 39.44 162.883 39.96 161.507 40.376C160.131 40.792 158.563 41 156.803 41Z" fill="#BC414B"/>
  <path d="M170.354 24.224H176.762L188.45 34.784V24.224H194.09V41H188.45L176.018 29.888V41H170.354V24.224Z" fill="#BC414B"/>
  <path d="M208.571 41.288C207.099 41.288 205.755 41.176 204.539 40.952C203.323 40.744 202.299 40.472 201.467 40.136C200.635 39.8 199.899 39.384 199.259 38.888C198.619 38.392 198.123 37.896 197.771 37.4C197.403 36.904 197.099 36.376 196.859 35.816C196.619 35.224 196.467 34.696 196.403 34.232C196.323 33.768 196.283 33.304 196.283 32.84V32.192C196.283 31.456 196.355 30.768 196.499 30.128C196.643 29.472 196.971 28.744 197.483 27.944C198.011 27.144 198.691 26.464 199.523 25.904C200.371 25.328 201.571 24.848 203.123 24.464C204.675 24.064 206.491 23.864 208.571 23.864H209.579C211.595 23.864 213.379 24.032 214.931 24.368C216.483 24.704 217.683 25.12 218.531 25.616C219.363 26.096 220.051 26.664 220.595 27.32C221.123 27.96 221.467 28.528 221.627 29.024C221.787 29.536 221.867 30.024 221.867 30.488V30.728H215.771C215.723 30.552 215.659 30.392 215.579 30.248C215.483 30.088 215.299 29.856 215.027 29.552C214.707 29.232 214.331 28.968 213.899 28.76C213.451 28.552 212.811 28.36 211.979 28.184C211.131 28.008 210.155 27.92 209.051 27.92C207.739 27.92 206.619 28.048 205.691 28.304C204.763 28.56 204.067 28.904 203.603 29.336C203.139 29.784 202.803 30.24 202.595 30.704C202.403 31.2 202.307 31.728 202.307 32.288V32.576C202.307 33.12 202.419 33.64 202.643 34.136C202.867 34.648 203.211 35.144 203.675 35.624C204.155 36.088 204.867 36.464 205.811 36.752C206.755 37.04 207.851 37.184 209.099 37.184C212.875 37.184 215.099 36.208 215.771 34.256C215.787 34.224 215.795 34.208 215.795 34.208H221.891V34.448C221.875 34.96 221.787 35.472 221.627 35.984C221.451 36.512 221.091 37.104 220.547 37.76C220.003 38.416 219.307 38.992 218.459 39.488C217.611 39.984 216.411 40.408 214.859 40.76C213.323 41.112 211.563 41.288 209.579 41.288H208.571Z" fill="#BC414B"/>
  <path d="M224.049 24.152H243.393V27.968H229.713V30.464H243.057V34.304H229.713V37.064H243.633V40.976H224.049V24.152Z" fill="#BC414B"/>
  <path d="M246.174 24.152H258.342C260.054 24.152 261.598 24.256 262.974 24.464C264.35 24.672 265.502 24.976 266.43 25.376C267.358 25.792 268.142 26.24 268.782 26.72C269.454 27.216 269.958 27.768 270.294 28.376C270.646 29 270.902 29.608 271.062 30.2C271.206 30.808 271.278 31.448 271.278 32.12V32.792C271.278 33.608 271.182 34.36 270.99 35.048C270.782 35.752 270.39 36.48 269.814 37.232C269.238 37.984 268.486 38.624 267.558 39.152C266.646 39.68 265.398 40.12 263.814 40.472C262.23 40.808 260.414 40.976 258.366 40.976H246.174V24.152ZM251.91 28.136V36.944H257.886C262.798 36.944 265.254 35.496 265.254 32.6V32.456C265.254 29.576 262.798 28.136 257.886 28.136H251.91Z" fill="#BC414B"/>
</svg>
