<svg viewBox="0 0 178 27" fill="none" xmlns="http://www.w3.org/2000/svg">
  <path d="M12.1681 26V6.77598H0.360107V0.835976H32.6881V6.77598H20.8441V26H12.1681Z" fill="#BE434E"/>
  <path d="M52.8461 0.763977H83.3381C85.6421 0.763977 87.7421 0.907977 89.6381 1.19598C91.5101 1.50798 93.0821 1.90398 94.3541 2.38398C95.6261 2.86398 96.7421 3.45198 97.7021 4.14798C98.6621 4.84398 99.4061 5.53998 99.9341 6.23598C100.462 6.95598 100.894 7.72398 101.23 8.53998C101.566 9.35598 101.782 10.1 101.878 10.772C101.974 11.444 102.022 12.128 102.022 12.824V13.796C102.022 14.492 101.974 15.176 101.878 15.848C101.782 16.52 101.566 17.264 101.23 18.08C100.894 18.944 100.462 19.724 99.9341 20.42C99.4061 21.14 98.6621 21.848 97.7021 22.544C96.7181 23.264 95.6141 23.864 94.3901 24.344C93.1181 24.848 91.5341 25.256 89.6381 25.568C87.7421 25.856 85.6421 26 83.3381 26H52.8461C50.5421 26 48.4301 25.856 46.5101 25.568C44.6141 25.256 43.0301 24.848 41.7581 24.344C40.4861 23.84 39.3821 23.24 38.4461 22.544C37.4621 21.824 36.7061 21.116 36.1781 20.42C35.6501 19.7 35.2181 18.92 34.8821 18.08C34.5701 17.24 34.3661 16.496 34.2701 15.848C34.1741 15.176 34.1261 14.492 34.1261 13.796V12.824C34.1261 12.104 34.1741 11.42 34.2701 10.772C34.3661 10.124 34.5701 9.37998 34.8821 8.53998C35.2181 7.69998 35.6501 6.93198 36.1781 6.23598C36.7061 5.53998 37.4501 4.84398 38.4101 4.14798C39.3701 3.45198 40.4861 2.86398 41.7581 2.38398C43.0541 1.87998 44.6381 1.48398 46.5101 1.19598C48.4301 0.907977 50.5421 0.763977 52.8461 0.763977ZM93.3101 13.04C93.2861 12.416 93.2021 11.84 93.0581 11.312C92.8661 10.76 92.5421 10.196 92.0861 9.61998C91.5821 9.01998 90.9581 8.51598 90.2141 8.10798C89.4701 7.69998 88.4381 7.35198 87.1181 7.06398C86.0381 6.84798 84.8141 6.71598 83.4461 6.66798H52.9901C46.2221 6.78798 42.8381 8.91198 42.8381 13.04V13.436C42.8381 14.228 42.9941 14.972 43.3061 15.668C43.6181 16.388 44.1221 17.084 44.8181 17.756C45.5381 18.476 46.6421 19.04 48.1301 19.448C49.5221 19.832 51.1781 20.036 53.0981 20.06H83.3021C85.1021 20.012 86.6501 19.808 87.9461 19.448C89.4341 19.064 90.5501 18.524 91.2941 17.828C92.0381 17.132 92.5541 16.436 92.8421 15.74C93.1541 15.02 93.3101 14.276 93.3101 13.508V13.04Z" fill="#BE434E"/>
  <path d="M122.842 26.072H121.546C119.53 26.072 117.682 25.916 116.002 25.604C114.346 25.268 112.942 24.836 111.79 24.308C110.662 23.756 109.654 23.108 108.766 22.364C107.902 21.572 107.218 20.792 106.714 20.024C106.186 19.232 105.766 18.404 105.454 17.54C105.118 16.652 104.902 15.836 104.806 15.092C104.686 14.348 104.626 13.616 104.626 12.896V0.835976H113.158V12.428C113.158 13.316 113.278 14.144 113.518 14.912C113.806 15.68 114.238 16.436 114.814 17.18C115.438 17.924 116.374 18.512 117.622 18.944C118.87 19.376 120.37 19.592 122.122 19.592C123.85 19.592 125.326 19.376 126.55 18.944C127.774 18.512 128.698 17.924 129.322 17.18C129.922 16.412 130.354 15.656 130.618 14.912C130.882 14.144 131.014 13.316 131.014 12.428V0.835976H139.51V12.896C139.51 13.928 139.378 14.984 139.114 16.064C138.85 17.144 138.346 18.296 137.602 19.52C136.858 20.768 135.898 21.86 134.722 22.796C133.546 23.732 131.926 24.512 129.862 25.136C127.822 25.76 125.482 26.072 122.842 26.072Z" fill="#BE434E"/>
  <path d="M151.776 17.072V26H143.172V0.835976H165.312C173.256 0.835976 177.228 3.00798 177.228 7.35198V7.74798C177.228 10.412 175.536 12.26 172.152 13.292C173.688 13.7 174.936 14.384 175.896 15.344C176.856 16.304 177.336 17.552 177.336 19.088V22.76L177.372 26H168.696C168.696 25.976 168.708 25.448 168.732 24.416V21.5C168.732 19.94 168.3 18.812 167.436 18.116C166.572 17.42 165.096 17.072 163.008 17.072H151.776ZM151.776 6.55998V11.492H164.808C165.984 11.492 166.848 11.264 167.4 10.808C167.976 10.352 168.264 9.75198 168.264 9.00798V8.97198C168.264 8.25198 167.976 7.67598 167.4 7.24398C166.848 6.78798 165.984 6.55998 164.808 6.55998H151.776Z" fill="#BE434E"/>
</svg>
