<svg width="484" height="148" viewBox="0 0 484 148" fill="none" xmlns="http://www.w3.org/2000/svg">
<mask id="mask0_508_211" style="mask-type:alpha" maskUnits="userSpaceOnUse" x="0" y="0" width="484" height="148">
<rect width="484" height="148" fill="#313131"/>
</mask>
<g mask="url(#mask0_508_211)">
<path d="M115.225 141.831V81.0021H144.46L167.228 118.857L189.995 81.0021H218.282V141.831H197.929V99.712L171.971 141.831H160.932L135.06 99.712V141.831H115.225Z" fill="#F0F0F0"/>
<path d="M228.668 80.7411H298.178V94.5777H249.021V103.628H296.97V117.552H249.021V127.559H299.04V141.744H228.668V80.7411Z" fill="#F0F0F0"/>
<path d="M344.392 142.962C337.838 142.904 332.117 142.382 327.23 141.396C322.343 140.352 318.577 139.104 315.932 137.654C313.288 136.145 311.161 134.347 309.551 132.258C307.998 130.17 307.021 128.255 306.619 126.515C306.159 124.833 305.929 123.034 305.929 121.12V120.249H327.402C327.747 124.716 330.363 127.617 335.25 128.952C337.838 129.59 341.115 129.909 345.082 129.909H349.825C352.93 129.909 355.804 129.735 358.449 129.387C361.151 129.039 363.135 128.545 364.4 127.907C365.607 127.211 366.412 126.515 366.814 125.819C367.217 125.123 367.447 124.339 367.504 123.469C367.504 122.135 367.131 121.091 366.383 120.336C365.636 119.582 363.997 118.915 361.467 118.335C358.823 117.755 355.086 117.407 350.256 117.291L343.788 117.204L338.872 117.029C317.485 116.507 306.791 110.561 306.791 99.1899V98.4937C306.848 96.5212 307.107 94.6937 307.567 93.0113C308.142 91.3868 309.206 89.7334 310.758 88.051C312.368 86.3685 314.466 84.9762 317.054 83.8739C319.641 82.7136 323.09 81.7563 327.402 81.0021C331.772 80.2479 336.86 79.8708 342.667 79.8708H348.704C354.741 79.8708 360.059 80.277 364.658 81.0892C369.258 81.8434 372.909 82.8296 375.611 84.0479C378.371 85.2082 380.613 86.6586 382.338 88.3991C384.12 90.1975 385.327 91.938 385.96 93.6204C386.592 95.3609 386.908 97.1883 386.908 99.1028V99.9731H365.521C365.406 99.2769 365.233 98.7257 365.003 98.3196C364.831 97.8555 364.342 97.2464 363.537 96.4922C362.79 95.6799 361.812 95.0418 360.605 94.5777C359.283 94.0555 357.443 93.6204 355.086 93.2723C352.556 92.8662 350.026 92.6632 347.496 92.6632H344.392C339.907 92.6632 336.343 92.9532 333.698 93.5334C331.053 94.1135 329.443 94.7227 328.869 95.3609C328.294 95.941 328.006 96.7822 328.006 97.8845C328.064 98.9288 328.38 99.77 328.955 100.408C329.587 101.104 331.053 101.743 333.353 102.323C335.71 102.845 339.016 103.106 343.271 103.106L348.1 103.193L354.309 103.28C366.556 103.512 375.41 105.078 380.872 107.979C386.333 110.822 389.064 115.289 389.064 121.381V122.512C389.064 124.774 388.806 126.805 388.288 128.603C387.713 130.344 386.592 132.142 384.925 133.999C383.315 135.855 381.13 137.422 378.371 138.698C375.668 139.916 371.931 140.932 367.159 141.744C362.387 142.556 356.839 142.962 350.515 142.962H344.392Z" fill="#F0F0F0"/>
<path d="M433.327 142.962C426.773 142.904 421.052 142.382 416.165 141.396C411.279 140.352 407.513 139.104 404.868 137.654C402.223 136.145 400.096 134.347 398.486 132.258C396.934 130.17 395.956 128.255 395.554 126.515C395.094 124.833 394.864 123.034 394.864 121.12V120.249H416.338C416.683 124.716 419.299 127.617 424.186 128.952C426.773 129.59 430.05 129.909 434.017 129.909H438.76C441.865 129.909 444.74 129.735 447.385 129.387C450.087 129.039 452.07 128.545 453.335 127.907C454.543 127.211 455.347 126.515 455.75 125.819C456.152 125.123 456.382 124.339 456.44 123.469C456.44 122.135 456.066 121.091 455.319 120.336C454.571 119.582 452.933 118.915 450.403 118.335C447.758 117.755 444.021 117.407 439.192 117.291L432.724 117.204L427.808 117.029C406.42 116.507 395.726 110.561 395.726 99.1899V98.4937C395.784 96.5212 396.043 94.6937 396.503 93.0113C397.078 91.3868 398.141 89.7334 399.694 88.051C401.303 86.3685 403.402 84.9762 405.989 83.8739C408.576 82.7136 412.026 81.7563 416.338 81.0021C420.708 80.2479 425.796 79.8708 431.603 79.8708H437.639C443.676 79.8708 448.994 80.277 453.594 81.0892C458.193 81.8434 461.844 82.8296 464.546 84.0479C467.306 85.2082 469.548 86.6586 471.273 88.3991C473.055 90.1975 474.263 91.938 474.895 93.6204C475.528 95.3609 475.844 97.1883 475.844 99.1028V99.9731H454.456C454.341 99.2769 454.169 98.7257 453.939 98.3196C453.766 97.8555 453.278 97.2464 452.473 96.4922C451.725 95.6799 450.748 95.0418 449.541 94.5777C448.218 94.0555 446.378 93.6204 444.021 93.2723C441.491 92.8662 438.962 92.6632 436.432 92.6632H433.327C428.843 92.6632 425.278 92.9532 422.634 93.5334C419.989 94.1135 418.379 94.7227 417.804 95.3609C417.229 95.941 416.942 96.7822 416.942 97.8845C416.999 98.9288 417.315 99.77 417.89 100.408C418.523 101.104 419.989 101.743 422.289 102.323C424.646 102.845 427.952 103.106 432.206 103.106L437.036 103.193L443.245 103.28C455.491 103.512 464.345 105.078 469.807 107.979C475.269 110.822 478 115.289 478 121.381V122.512C478 124.774 477.741 126.805 477.224 128.603C476.649 130.344 475.528 132.142 473.86 133.999C472.251 135.855 470.066 137.422 467.306 138.698C464.604 139.916 460.867 140.932 456.095 141.744C451.323 142.556 445.775 142.962 439.45 142.962H433.327Z" fill="#F0F0F0"/>
</g>
</svg>
