<svg width="484" height="148" viewBox="0 0 484 148" fill="none" xmlns="http://www.w3.org/2000/svg">
<mask id="mask0_508_210" style="mask-type:alpha" maskUnits="userSpaceOnUse" x="0" y="0" width="484" height="148">
<rect width="484" height="148" fill="#313131"/>
</mask>
<g mask="url(#mask0_508_210)">
<path d="M20.6253 46.3746V67.8832H0V7.26018H53.0735C72.1166 7.26018 81.6382 12.4928 81.6382 22.958V23.912C81.6382 30.3299 77.5822 34.7819 69.4701 37.2681C73.1522 38.251 76.1439 39.8989 78.4452 42.2116C80.7464 44.5244 81.8971 47.531 81.8971 51.2314V60.0776L81.9834 67.8832H61.1855C61.1855 67.8253 61.2143 66.5533 61.2718 64.0671V57.0421C61.2718 53.2839 60.2362 50.5664 58.1651 48.8897C56.0939 47.213 52.5557 46.3746 47.5504 46.3746H20.6253ZM20.6253 21.05V32.9317H51.8653C54.6844 32.9317 56.7555 32.3824 58.0788 31.2839C59.4595 30.1853 60.1499 28.7399 60.1499 26.9475V26.8607C60.1499 25.1262 59.4595 23.7385 58.0788 22.6978C56.7555 21.5992 54.6844 21.05 51.8653 21.05H20.6253Z" fill="#F0F0F0"/>
<path d="M91.3209 7.08673H286.481V20.8765H111.468V29.8962H285.359V43.7727H111.468V53.7465H287.344V67.8832H91.3209V7.08673Z" fill="#F0F0F0"/>
<path d="M296.482 7H340.235C346.391 7 351.943 7.37582 356.891 8.12747C361.838 8.87911 365.981 9.97766 369.318 11.4231C372.654 12.9264 375.474 14.5454 377.775 16.2799C380.191 18.0723 382.003 20.067 383.212 22.2642C384.477 24.5191 385.398 26.7162 385.973 28.8555C386.491 31.0526 386.75 33.3654 386.75 35.7937V38.2221C386.75 41.1709 386.405 43.8884 385.714 46.3746C384.966 48.9186 383.557 51.5494 381.486 54.2668C379.415 56.9843 376.711 59.2971 373.374 61.2051C370.094 63.1131 365.607 64.7031 359.911 65.9751C354.215 67.1893 347.686 67.7964 340.321 67.7964H296.482V7ZM317.107 21.3969V53.2261H338.595C356.258 53.2261 365.089 47.9935 365.089 37.5283V37.0079C365.089 26.6006 356.258 21.3969 338.595 21.3969H317.107Z" fill="#F0F0F0"/>
</g>
</svg>
