<svg viewBox="0 0 25 25" fill="none" xmlns="http://www.w3.org/2000/svg">
<path d="M24.2092 3.7109C24.2092 3.7109 23.9704 2.025 23.2349 1.28473C22.3036 0.310436 21.2624 0.30566 20.7848 0.248348C17.3653 -1.36641e-07 12.2311 0 12.2311 0H12.2216C12.2216 0 7.08745 -1.36641e-07 3.66789 0.248348C3.19029 0.30566 2.14914 0.310436 1.21783 1.28473C0.482339 2.025 0.248318 3.7109 0.248318 3.7109C0.248318 3.7109 -3.05176e-05 9.25865 -3.05176e-05 11.2359V13.0889C-3.05176e-05 15.0662 0.243542 20.7371 0.243542 20.7371C0.243542 20.7371 0.482339 22.423 1.21306 23.1633C2.14436 24.1376 3.367 24.1041 3.91146 24.2092C5.86959 24.3955 12.2264 24.4528 12.2264 24.4528C12.2264 24.4528 17.3653 24.4432 20.7848 24.1996C21.2624 24.1423 22.3036 24.1376 23.2349 23.1633C23.9704 22.423 24.2092 20.7371 24.2092 20.7371C24.2092 20.7371 24.4527 15.071 24.4527 13.0889V11.2359C24.4527 9.25865 24.2092 3.7109 24.2092 3.7109ZM8.68102 17.9862V7.03335L18.3395 12.5795L8.68102 17.9862Z" fill="#F0F0F0"/>
</svg>
