<svg viewBox="0 0 26 25" fill="none" xmlns="http://www.w3.org/2000/svg">
<path d="M13 2.2017C16.2667 2.2017 16.6536 2.21603 17.9383 2.27334C19.1323 2.32588 19.777 2.52647 20.2069 2.69363C20.7752 2.91332 21.1859 3.18077 21.611 3.60583C22.0408 4.03566 22.3035 4.44162 22.5232 5.00995C22.6904 5.43979 22.8909 6.08931 22.9435 7.27852C23.0008 8.56802 23.0151 8.95487 23.0151 12.2168C23.0151 15.4836 23.0008 15.8704 22.9435 17.1551C22.8909 18.3491 22.6904 18.9939 22.5232 19.4237C22.3035 19.9921 22.0361 20.4028 21.611 20.8278C21.1812 21.2577 20.7752 21.5204 20.2069 21.74C19.777 21.9072 19.1275 22.1078 17.9383 22.1603C16.6488 22.2176 16.262 22.232 13 22.232C9.73325 22.232 9.3464 22.2176 8.06168 22.1603C6.86769 22.1078 6.22294 21.9072 5.79311 21.74C5.22477 21.5204 4.81404 21.2529 4.38899 20.8278C3.95915 20.398 3.69648 19.9921 3.47678 19.4237C3.30963 18.9939 3.10904 18.3444 3.0565 17.1551C2.99919 15.8656 2.98486 15.4788 2.98486 12.2168C2.98486 8.9501 2.99919 8.56325 3.0565 7.27852C3.10904 6.08454 3.30963 5.43979 3.47678 5.00995C3.69648 4.44162 3.96393 4.03089 4.38899 3.60583C4.81882 3.17599 5.22477 2.91332 5.79311 2.69363C6.22294 2.52647 6.87247 2.32588 8.06168 2.27334C9.3464 2.21603 9.73325 2.2017 13 2.2017ZM13 0C9.68072 0 9.26521 0.0143278 7.96138 0.071639C6.66233 0.12895 5.76923 0.339091 4.99553 0.639975C4.1884 0.955186 3.50544 1.37069 2.82726 2.05365C2.1443 2.73183 1.72879 3.41479 1.41358 4.21715C1.1127 4.99563 0.902556 5.88395 0.845244 7.183C0.787933 8.49161 0.773605 8.90711 0.773605 12.2264C0.773605 15.5457 0.787933 15.9612 0.845244 17.265C0.902556 18.564 1.1127 19.4571 1.41358 20.2308C1.72879 21.038 2.1443 21.7209 2.82726 22.3991C3.50544 23.0773 4.1884 23.4976 4.99075 23.808C5.76923 24.1089 6.65755 24.319 7.95661 24.3764C9.26044 24.4337 9.67594 24.448 12.9952 24.448C16.3145 24.448 16.73 24.4337 18.0338 24.3764C19.3329 24.319 20.226 24.1089 20.9997 23.808C21.802 23.4976 22.485 23.0773 23.1632 22.3991C23.8414 21.7209 24.2616 21.038 24.5721 20.2356C24.873 19.4571 25.0831 18.5688 25.1404 17.2698C25.1977 15.9659 25.212 15.5504 25.212 12.2312C25.212 8.91189 25.1977 8.49638 25.1404 7.19255C25.0831 5.8935 24.873 5.0004 24.5721 4.2267C24.2712 3.41479 23.8557 2.73183 23.1727 2.05365C22.4945 1.37547 21.8116 0.955186 21.0092 0.644751C20.2308 0.343867 19.3424 0.133726 18.0434 0.0764149C16.7348 0.0143278 16.3193 0 13 0Z" fill="#F0F0F0"/>
<path d="M13.0002 5.94604C9.53284 5.94604 6.71982 8.75907 6.71982 12.2264C6.71982 15.6937 9.53284 18.5067 13.0002 18.5067C16.4675 18.5067 19.2805 15.6937 19.2805 12.2264C19.2805 8.75907 16.4675 5.94604 13.0002 5.94604ZM13.0002 16.3003C10.7507 16.3003 8.9263 14.4759 8.9263 12.2264C8.9263 9.97693 10.7507 8.15253 13.0002 8.15253C15.2496 8.15253 17.074 9.97693 17.074 12.2264C17.074 14.4759 15.2496 16.3003 13.0002 16.3003Z" fill="#F0F0F0"/>
<path d="M20.9951 5.69766C20.9951 6.50957 20.336 7.16387 19.5289 7.16387C18.717 7.16387 18.0627 6.50479 18.0627 5.69766C18.0627 4.88575 18.7218 4.23145 19.5289 4.23145C20.336 4.23145 20.9951 4.89052 20.9951 5.69766Z" fill="#F0F0F0"/>
</svg>
